<?xml version="1.0" encoding="UTF-8"?>
<!DOCTYPE svg PUBLIC "-//W3C//DTD SVG 1.1//EN" "http://www.w3.org/Graphics/SVG/1.1/DTD/svg11.dtd">
<svg xmlns="http://www.w3.org/2000/svg" version="1.1" width="606px" height="593px" style="shape-rendering:geometricPrecision; text-rendering:geometricPrecision; image-rendering:optimizeQuality; fill-rule:evenodd; clip-rule:evenodd" xmlns:xlink="http://www.w3.org/1999/xlink">
<g><path style="opacity:0.999" fill="#020202" d="M 270.5,-0.5 C 271.167,-0.5 271.833,-0.5 272.5,-0.5C 286.487,-0.108899 298.32,5.22443 308,15.5C 313.23,40.7526 319.563,65.7526 327,90.5C 329.144,106.42 330.477,122.42 331,138.5C 331.519,139.516 332.353,140.182 333.5,140.5C 377.162,119.669 420.828,98.836 464.5,78C 471.58,74.9172 478.913,72.7506 486.5,71.5C 486.333,94.8357 486.5,118.169 487,141.5C 523.031,123.402 559.531,106.235 596.5,90C 599.546,89.2612 602.546,88.4279 605.5,87.5C 605.5,89.5 605.5,91.5 605.5,93.5C 603.98,97.5245 602.146,101.525 600,105.5C 584.611,126.556 569.611,147.89 555,169.5C 546.511,184.475 539.677,200.142 534.5,216.5C 555.759,251.116 567.259,288.783 569,329.5C 572.595,390.127 557.928,445.793 525,496.5C 499.272,531.801 465.439,555.968 423.5,569C 413.325,570.501 403.158,572.001 393,573.5C 387.441,573.364 382.441,571.697 378,568.5C 357.325,582.835 334.325,590.168 309,590.5C 291.603,588.951 274.437,589.617 257.5,592.5C 252.833,592.5 248.167,592.5 243.5,592.5C 230.14,590.393 216.807,587.56 203.5,584C 194.963,579.905 186.963,575.072 179.5,569.5C 148.603,575.154 120.27,568.987 94.5,551C 46.462,515.224 16.6286,467.724 5,408.5C 2.31583,395.47 0.482501,382.47 -0.5,369.5C -0.5,356.833 -0.5,344.167 -0.5,331.5C 1.37468,298.003 9.54135,266.003 24,235.5C 34.2109,217.94 46.7109,202.107 61.5,188C 74.9014,179.601 86.0681,168.767 95,155.5C 107.684,143.571 121.851,133.738 137.5,126C 156.599,118.904 176.266,116.571 196.5,119C 198.18,118.653 199.18,117.653 199.5,116C 195.864,112.099 191.364,109.932 186,109.5C 173.711,112.804 161.211,115.138 148.5,116.5C 141.441,115.091 134.774,112.591 128.5,109C 121.457,98.9563 112.79,90.623 102.5,84C 88.7301,77.4447 75.3968,78.1114 62.5,86C 53.4092,94.3422 50.2425,104.509 53,116.5C 57.1667,122.667 61.3333,128.833 65.5,135C 64.8333,136 64.1667,137 63.5,138C 58.6317,139.186 54.2984,138.186 50.5,135C 37.2506,121.185 35.084,105.685 44,88.5C 56.1372,69.1194 73.3038,62.2861 95.5,68C 100.473,69.237 104.973,71.4037 109,74.5C 122.459,64.949 136.959,63.1157 152.5,69C 156.506,72.0053 160.84,74.5053 165.5,76.5C 165.887,69.4379 167.887,62.9379 171.5,57C 184.58,49.5763 197.58,49.9096 210.5,58C 227.514,75.076 231.181,94.7426 221.5,117C 221.833,117.833 222.167,118.667 222.5,119.5C 233.579,122.379 244.579,125.379 255.5,128.5C 255.006,95.8087 242.839,68.4754 219,46.5C 213.344,31.6131 217.511,20.1131 231.5,12C 243.567,4.57346 256.567,0.406796 270.5,-0.5 Z"/></g>
<g><path style="opacity:1" fill="#459f19" d="M 267.5,16.5 C 274.462,16.0594 281.129,17.2261 287.5,20C 292.062,22.9246 293.229,26.7579 291,31.5C 288.408,34.7621 285.241,37.2621 281.5,39C 272.609,42.3478 263.442,44.5145 254,45.5C 245.901,45.3687 239.235,42.3687 234,36.5C 233.143,33.4495 233.81,30.7828 236,28.5C 245.453,21.5144 255.953,17.5144 267.5,16.5 Z"/></g>
<g><path style="opacity:1" fill="#459e17" d="M 304.5,51.5 C 305.527,57.9148 307.527,63.9148 310.5,69.5C 310.41,72.1522 311.076,74.4855 312.5,76.5C 313.768,78.9052 314.435,81.5718 314.5,84.5C 316.289,99.1124 317.289,113.779 317.5,128.5C 312.824,135.323 306.49,140.157 298.5,143C 290.09,145.995 281.423,147.161 272.5,146.5C 272.724,140.261 272.057,134.261 270.5,128.5C 266.791,104.636 258.958,82.3023 247,61.5C 246.029,58.6956 246.862,56.6956 249.5,55.5C 259.86,57.3674 269.86,56.2007 279.5,52C 286.33,48.4194 292.997,44.5861 299.5,40.5C 301.448,44.0606 303.114,47.7272 304.5,51.5 Z"/></g>
<g><path style="opacity:1" fill="#27590e" d="M 304.5,51.5 C 307.473,57.0852 309.473,63.0852 310.5,69.5C 307.527,63.9148 305.527,57.9148 304.5,51.5 Z"/></g>
<g><path style="opacity:1" fill="#459c1a" d="M 183.5,64.5 C 194.843,63.5888 203.01,68.2555 208,78.5C 212.108,87.7554 212.441,97.0887 209,106.5C 189.397,98.9243 180.897,84.9243 183.5,64.5 Z"/></g>
<g><path style="opacity:1" fill="#25560e" d="M 310.5,69.5 C 311.924,71.5145 312.59,73.8478 312.5,76.5C 311.076,74.4855 310.41,72.1522 310.5,69.5 Z"/></g>
<g><path style="opacity:1" fill="#44991d" d="M 127.5,79.5 C 134.674,79.0117 141.674,79.845 148.5,82C 157.524,85.8385 165.857,90.6718 173.5,96.5C 166.287,97.9597 159.287,100.126 152.5,103C 150.833,103.667 149.167,103.667 147.5,103C 138.431,97.1019 130.431,89.9353 123.5,81.5C 124.949,80.8281 126.282,80.1614 127.5,79.5 Z"/></g>
<g><path style="opacity:1" fill="#f6f8f5" d="M 467.5,94.5 C 468.5,94.5 469.5,94.5 470.5,94.5C 470.667,112.503 470.5,130.503 470,148.5C 430.58,170.46 391.08,192.294 351.5,214C 336.451,241.262 321.785,268.762 307.5,296.5C 306.675,297.386 305.675,297.719 304.5,297.5C 305.188,269.507 305.688,241.507 306,213.5C 352.579,189.461 399.079,165.294 445.5,141C 446.798,136.882 446.798,132.715 445.5,128.5C 394.342,155.245 343.342,182.245 292.5,209.5C 290.981,324.499 290.648,439.499 291.5,554.5C 313.5,544.5 335.5,534.5 357.5,524.5C 357.475,527.038 357.641,529.705 358,532.5C 351.35,537.983 345.183,543.983 339.5,550.5C 319.386,566.483 296.553,573.483 271,571.5C 270.333,444.833 270.333,318.167 271,191.5C 336.638,159.264 402.138,126.931 467.5,94.5 Z"/></g>
<g><path style="opacity:1" fill="#327211" d="M 314.5,84.5 C 318.364,98.991 319.364,113.658 317.5,128.5C 317.289,113.779 316.289,99.1124 314.5,84.5 Z"/></g>
<g><path style="opacity:0.99" fill="#0a1015" d="M 77.5,101.5 C 90.0237,99.8556 95.1904,105.189 93,117.5C 89.857,125.314 84.357,127.481 76.5,124C 68.4248,116.005 68.7581,108.505 77.5,101.5 Z"/></g>
<g><path style="opacity:1" fill="#f6f8f5" d="M 381.5,492.5 C 373.353,495.739 365.686,499.739 358.5,504.5C 355.227,507.144 351.56,509.311 347.5,511C 340.101,514.075 332.768,517.242 325.5,520.5C 324.417,520.539 323.417,520.873 322.5,521.5C 321.833,503.004 321.167,484.671 320.5,466.5C 319.301,420.822 319.301,375.156 320.5,329.5C 321.817,322.955 323.15,316.288 324.5,309.5C 325.785,301.449 329.785,294.949 336.5,290C 359.773,273.759 384.273,271.592 410,283.5C 414.265,282.98 416.431,280.646 416.5,276.5C 414.367,269.185 410.367,263.018 404.5,258C 403.906,257.536 403.239,257.369 402.5,257.5C 399.944,256.457 397.777,254.79 396,252.5C 388.031,241.204 379.364,230.538 370,220.5C 369.493,219.004 369.993,217.837 371.5,217C 380.652,214.091 389.318,210.091 397.5,205C 434.792,187.689 472.126,170.355 509.5,153C 528.639,142.438 547.639,132.604 566.5,123.5C 553.319,141.513 541.152,160.179 530,179.5C 516.364,209.378 508.364,240.712 506,273.5C 505.347,324.554 505.347,375.554 506,426.5C 465.001,449.417 423.501,471.417 381.5,492.5 Z"/></g>
<g><path style="opacity:1" fill="#ce4d07" d="M 162.5,132.5 C 174.349,132.516 186.349,134.016 198.5,137C 208.922,141.378 218.589,147.044 227.5,154C 223.737,154.92 220.237,156.42 217,158.5C 206.651,154.722 195.985,151.722 185,149.5C 171.294,150.794 157.794,150.794 144.5,149.5C 142.452,150.77 140.452,151.103 138.5,150.5C 136.452,151.77 134.452,152.103 132.5,151.5C 128.875,152.13 125.375,153.13 122,154.5C 119.945,154.152 117.945,154.819 116,156.5C 116.027,154.583 116.861,152.916 118.5,151.5C 128.996,143.821 140.162,138.155 152,134.5C 154.333,134.5 156.667,134.5 159,134.5C 160.302,133.915 161.469,133.249 162.5,132.5 Z"/></g>
<g><path style="opacity:1" fill="#1c400c" d="M 270.5,128.5 C 272.057,134.261 272.724,140.261 272.5,146.5C 271.318,140.699 270.652,134.699 270.5,128.5 Z"/></g>
<g><path style="opacity:1" fill="#cf4d07" d="M 157.5,168.5 C 172.264,168.033 186.93,168.533 201.5,170C 167.631,174.132 135.631,184.132 105.5,200C 72.9888,224.503 52.1555,256.669 43,296.5C 32.2364,347.375 33.2364,398.041 46,448.5C 49.5421,457.96 52.3754,467.626 54.5,477.5C 54.2811,478.938 53.7811,480.271 53,481.5C 42.3064,466.447 33.973,450.114 28,432.5C 12.0622,375.104 13.3955,318.104 32,261.5C 56.0858,206.584 97.9192,175.584 157.5,168.5 Z"/></g>
<g><path style="opacity:1" fill="#b7b7b7" d="M 85.5,323.5 C 84.3991,331.65 83.7324,339.983 83.5,348.5C 80.8176,392.343 85.651,435.343 98,477.5C 108.118,504.415 121.284,529.415 137.5,552.5C 116.749,545.344 98.582,533.677 83,517.5C 76.7771,507.849 71.1104,497.849 66,487.5C 58.4991,465.993 52.8324,443.993 49,421.5C 48.2786,414.177 47.7786,406.844 47.5,399.5C 47.3002,377.487 47.6336,355.487 48.5,333.5C 49.9535,324.199 51.4535,314.866 53,305.5C 55.9711,296.965 58.3044,288.299 60,279.5C 64.3275,269.565 68.6608,259.565 73,249.5C 78.6535,240.199 84.3202,230.866 90,221.5C 98.0699,213.465 106.737,206.131 116,199.5C 116.414,199.957 116.914,200.291 117.5,200.5C 121.915,197.424 126.582,194.757 131.5,192.5C 138.98,190.252 146.313,187.752 153.5,185C 164.876,182.829 176.21,180.495 187.5,178C 208.34,176.71 208.34,178.543 187.5,183.5C 169.947,190.176 153.614,199.009 138.5,210C 120.85,225.125 108.017,243.625 100,265.5C 96.5796,274.629 93.5796,283.963 91,293.5C 88.7297,303.481 86.8964,313.481 85.5,323.5 Z"/></g>
<g><path style="opacity:1" fill="#fe7c16" d="M 168.5,560.5 C 168.5,560.833 168.5,561.167 168.5,561.5C 161.275,560.388 154.942,557.388 149.5,552.5C 142.248,540.995 134.748,529.662 127,518.5C 110.998,490.832 100.331,461.165 95,429.5C 83.6548,371.632 88.6548,315.299 110,260.5C 134.658,212.247 174.158,188.08 228.5,188C 166.486,205.684 128.986,246.184 116,309.5C 100.625,388.499 111.292,463.832 148,535.5C 153.896,544.639 160.729,552.973 168.5,560.5 Z"/></g>
<g><path style="opacity:1" fill="#b7b7b7" d="M 158.5,388.5 C 158.213,398.051 158.88,407.384 160.5,416.5C 166.399,476.464 190.732,527.63 233.5,570C 237.199,573.361 241.199,576.361 245.5,579C 243.155,579.17 240.821,578.837 238.5,578C 220.758,571.369 202.758,565.369 184.5,560C 175.809,555.645 168.643,549.479 163,541.5C 145.711,516.652 134.044,489.319 128,459.5C 124.451,440.209 121.118,420.875 118,401.5C 112.313,350.949 120.647,302.949 143,257.5C 147.58,251.34 151.914,245.007 156,238.5C 166.349,229.154 177.015,220.154 188,211.5C 188.414,211.957 188.914,212.291 189.5,212.5C 192.975,210.192 196.308,207.692 199.5,205C 207.654,203.206 215.654,200.04 223.5,195.5C 224.167,195.833 224.833,196.167 225.5,196.5C 228.986,195.828 232.153,194.494 235,192.5C 235.167,193 235.333,193.5 235.5,194C 226.049,203.451 216.549,212.951 207,222.5C 184.687,247.457 170.02,276.457 163,309.5C 160.223,335.769 158.723,362.102 158.5,388.5 Z"/></g>
<g><path style="opacity:1" fill="#d05b15" d="M 251.5,202.5 C 245.655,209.837 238.655,216.004 230.5,221C 204.473,246.544 187.973,277.378 181,313.5C 177.838,341.411 175.672,369.411 174.5,397.5C 176.002,412.852 177.836,428.185 180,443.5C 184.189,461.385 187.689,479.385 190.5,497.5C 179.959,474.021 173.126,449.354 170,423.5C 168.512,399.852 168.179,376.185 169,352.5C 169.38,313.626 179.38,277.626 199,244.5C 211.957,224.865 228.957,209.865 250,199.5C 251.039,200.244 251.539,201.244 251.5,202.5 Z"/></g>
<g><path style="opacity:1" fill="#fe7f1a" d="M 251.5,202.5 C 251.579,323.425 251.579,444.425 251.5,565.5C 244.974,563.377 238.974,560.21 233.5,556C 219.784,543.295 207.951,529.128 198,513.5C 195.189,508.226 192.689,502.893 190.5,497.5C 187.689,479.385 184.189,461.385 180,443.5C 177.836,428.185 176.002,412.852 174.5,397.5C 175.672,369.411 177.838,341.411 181,313.5C 187.973,277.378 204.473,246.544 230.5,221C 238.655,216.004 245.655,209.837 251.5,202.5 Z"/></g>
<g><path style="opacity:1" fill="#275b0d" d="M 292.5,219.5 C 294.465,219.948 294.798,220.948 293.5,222.5C 292.614,221.675 292.281,220.675 292.5,219.5 Z"/></g>
<g><path style="opacity:1" fill="#f5f7f4" d="M 359.5,231.5 C 364.406,234.898 368.906,238.898 373,243.5C 378.883,250.382 384.383,257.548 389.5,265C 371.362,266.45 353.695,270.283 336.5,276.5C 336.678,272.785 337.845,269.119 340,265.5C 347.802,254.895 354.302,243.562 359.5,231.5 Z"/></g>
<g><path style="opacity:1" fill="#f87615" d="M 540.5,423.5 C 538.576,423.711 538.243,424.377 539.5,425.5C 538.65,430.232 537.484,434.899 536,439.5C 535.632,440.91 534.799,441.91 533.5,442.5C 528.028,438.222 525.194,432.556 525,425.5C 524.745,398.658 525.245,371.825 526.5,345C 525.878,325.165 525.212,305.331 524.5,285.5C 524.589,273.841 525.922,262.341 528.5,251C 529.424,249.189 530.257,249.355 531,251.5C 531.249,250.376 531.749,249.376 532.5,248.5C 543.164,271.642 549.331,295.975 551,321.5C 552.853,349.728 551.187,377.728 546,405.5C 544.66,411.684 542.827,417.684 540.5,423.5 Z"/></g>
<g><path style="opacity:1" fill="#aaacaa" d="M 402.5,257.5 C 403.239,257.369 403.906,257.536 404.5,258C 410.367,263.018 414.367,269.185 416.5,276.5C 412.637,269.628 407.97,263.295 402.5,257.5 Z"/></g>
<g><path style="opacity:1" fill="#a9aaa9" d="M 324.5,309.5 C 323.15,316.288 321.817,322.955 320.5,329.5C 320.346,322.399 321.679,315.732 324.5,309.5 Z"/></g>
<g><path style="opacity:1" fill="#121c22" d="M 479.5,275.5 C 481.752,275.916 483.252,277.249 484,279.5C 484.996,284.229 484.496,288.729 482.5,293C 438.039,315.061 394.372,338.394 351.5,363C 344.894,363.389 342.061,360.222 343,353.5C 343.7,349.934 345.533,347.1 348.5,345C 392.192,321.726 435.858,298.56 479.5,275.5 Z"/></g>
<g><path style="opacity:1" fill="#616161" d="M 85.5,323.5 C 85.7803,332.056 85.1137,340.39 83.5,348.5C 83.7324,339.983 84.3991,331.65 85.5,323.5 Z"/></g>
<g><path style="opacity:1" fill="#111b22" d="M 480.5,315.5 C 482.411,315.574 483.578,316.574 484,318.5C 484.667,322.833 484.667,327.167 484,331.5C 462.325,343.925 440.158,355.759 417.5,367C 394.751,380.04 371.751,392.54 348.5,404.5C 343.439,402.939 341.605,399.606 343,394.5C 344.35,389.815 347.183,386.315 351.5,384C 394.53,361.153 437.53,338.319 480.5,315.5 Z"/></g>
<g><path style="opacity:1" fill="#111a20" d="M 479.5,356.5 C 481.911,356.137 483.411,357.137 484,359.5C 484.667,363.833 484.667,368.167 484,372.5C 483.167,373.333 482.333,374.167 481.5,375C 437.683,397.496 394.349,420.829 351.5,445C 343.333,444.523 340.833,440.356 344,432.5C 345.833,430.667 347.667,428.833 349.5,427C 393.055,403.726 436.388,380.226 479.5,356.5 Z"/></g>
<g><path style="opacity:1" fill="#4c4c4c" d="M 48.5,333.5 C 47.6336,355.487 47.3002,377.487 47.5,399.5C 46.3377,380.671 46.1711,361.671 47,342.5C 47.1805,339.305 47.6805,336.305 48.5,333.5 Z"/></g>
<g><path style="opacity:1" fill="#6b6b6b" d="M 158.5,388.5 C 159.733,397.643 160.399,406.976 160.5,416.5C 158.88,407.384 158.213,398.051 158.5,388.5 Z"/></g>
<g><path style="opacity:1" fill="#86562e" d="M 540.5,423.5 C 540.672,424.492 540.338,425.158 539.5,425.5C 538.243,424.377 538.576,423.711 540.5,423.5 Z"/></g>
<g><path style="opacity:1" fill="#b7b7b7" d="M 525.5,444.5 C 526.873,444.343 528.207,444.51 529.5,445C 527.157,452.86 524.657,460.693 522,468.5C 514.413,484.015 506.08,499.015 497,513.5C 486.686,526.236 473.852,535.403 458.5,541C 457.5,542 456.5,543 455.5,544C 445.361,546.727 435.361,550.06 425.5,554C 424.167,554.667 422.833,554.667 421.5,554C 425.694,551.589 429.694,548.923 433.5,546C 453.788,523.943 469.955,499.109 482,471.5C 497.151,463.352 511.651,454.352 525.5,444.5 Z"/></g>
<g><path style="opacity:1" fill="#c4c6c4" d="M 320.5,466.5 C 321.167,484.671 321.833,503.004 322.5,521.5C 323.417,520.873 324.417,520.539 325.5,520.5C 324.365,522.213 322.698,522.88 320.5,522.5C 320.5,503.833 320.5,485.167 320.5,466.5 Z"/></g>
<g><path style="opacity:0.999" fill="#d34f07" d="M 470.5,466.5 C 471.873,466.343 473.207,466.51 474.5,467C 458.829,504.676 434.829,536.009 402.5,561C 398.459,561.827 394.459,561.66 390.5,560.5C 400.094,553.099 409.261,545.099 418,536.5C 433.571,517.706 446.905,497.373 458,475.5C 461.969,472.111 466.136,469.111 470.5,466.5 Z"/></g>
<g><path style="opacity:1" fill="#111a20" d="M 478.5,397.5 C 481.238,396.965 483.072,397.965 484,400.5C 484.667,404.5 484.667,408.5 484,412.5C 441.073,436.381 397.907,459.881 354.5,483C 348.134,486.232 344.134,484.399 342.5,477.5C 343.462,473.046 345.795,469.546 349.5,467C 392.665,443.969 435.665,420.803 478.5,397.5 Z"/></g>
<g><path style="opacity:1" fill="#b5b5b5" d="M 435.5,489.5 C 436.675,489.281 437.675,489.614 438.5,490.5C 421.19,514.319 402.19,536.819 381.5,558C 374.147,560.705 366.814,563.372 359.5,566C 349.031,568.652 338.531,571.152 328,573.5C 327.312,572.668 327.479,572.002 328.5,571.5C 337.979,565.001 346.813,557.668 355,549.5C 363.201,538.932 371.034,528.099 378.5,517C 397.402,507.213 416.402,498.046 435.5,489.5 Z"/></g>
<g><path style="opacity:1" fill="#c1c3c1" d="M 381.5,492.5 C 374.314,497.261 366.647,501.261 358.5,504.5C 365.686,499.739 373.353,495.739 381.5,492.5 Z"/></g>
</svg>
