<?xml version="1.0" standalone="no"?>
<!DOCTYPE svg PUBLIC "-//W3C//DTD SVG 20010904//EN"
 "http://www.w3.org/TR/2001/REC-SVG-20010904/DTD/svg10.dtd">
<svg version="1.0" xmlns="http://www.w3.org/2000/svg"
 width="606.000000pt" height="593.000000pt" viewBox="0 0 606.000000 593.000000"
 preserveAspectRatio="xMidYMid meet">

<g transform="translate(0.000000,593.000000) scale(0.100000,-0.100000)"
fill="#000000" stroke="none">
<path d="M2640 5918 c-176 -19 -376 -121 -436 -223 -66 -113 -55 -180 49 -296
117 -130 146 -170 187 -254 50 -105 86 -225 105 -356 22 -157 23 -153 -26
-145 -23 4 -53 13 -68 20 -14 8 -57 21 -96 31 -155 37 -149 30 -110 145 73
214 -26 469 -210 541 -89 34 -202 33 -270 -2 -60 -32 -85 -75 -92 -159 -3 -33
-8 -60 -10 -60 -9 0 -69 34 -92 52 -46 35 -156 61 -235 55 -85 -7 -161 -29
-206 -59 l-34 -23 -56 28 c-122 61 -280 66 -398 12 -69 -31 -155 -114 -197
-190 -55 -98 -68 -240 -29 -332 35 -86 123 -163 185 -163 74 0 69 41 -16 146
-73 89 -81 170 -29 281 47 99 136 154 260 161 65 3 95 0 145 -17 82 -27 185
-105 266 -201 63 -76 97 -99 193 -132 53 -19 58 -19 180 -2 69 9 149 25 179
36 30 10 70 18 89 18 39 0 132 -47 132 -66 0 -30 -41 -37 -179 -30 -117 6
-150 4 -236 -14 -179 -37 -231 -59 -392 -163 -117 -77 -215 -164 -300 -267
-104 -126 -135 -156 -209 -204 -123 -79 -287 -267 -402 -458 -126 -210 -205
-457 -257 -798 -22 -150 -30 -474 -16 -659 45 -583 287 -1140 650 -1500 160
-159 303 -269 443 -341 160 -83 268 -111 456 -117 87 -4 142 -2 142 4 0 5 -21
25 -48 44 -108 77 -176 160 -287 349 -21 36 -50 81 -65 100 -119 155 -272 551
-334 865 -56 283 -80 683 -57 931 16 169 64 424 101 540 16 52 30 99 30 105 0
23 91 226 127 284 158 252 344 413 599 517 141 58 268 86 414 91 80 3 103 2
77 -4 -73 -17 -389 -168 -488 -234 -155 -103 -297 -258 -411 -446 -94 -155
-194 -483 -239 -779 -20 -133 -24 -192 -23 -420 0 -296 13 -418 80 -735 72
-344 226 -740 357 -920 97 -132 122 -158 262 -262 211 -158 247 -173 520 -219
l160 -27 207 18 c145 12 245 15 330 11 283 -16 602 73 773 215 28 23 93 70
145 104 52 34 124 88 158 120 126 115 282 326 408 551 55 98 98 163 118 178
49 37 122 77 128 70 21 -21 -120 -286 -249 -466 -157 -220 -306 -371 -516
-521 l-77 -56 56 -7 c186 -23 455 53 688 194 325 198 548 426 722 739 98 175
105 189 162 343 117 316 172 631 172 986 0 189 -33 475 -69 599 -5 17 -17 64
-26 104 -31 135 -172 464 -236 550 -19 26 -19 26 16 126 49 139 150 342 227
455 208 305 303 442 344 495 55 70 94 150 102 207 4 36 3 41 -12 35 -10 -4
-30 -10 -44 -14 -15 -3 -79 -30 -142 -60 -63 -30 -142 -65 -175 -78 -66 -25
-171 -74 -460 -215 -104 -51 -227 -110 -272 -131 l-83 -38 0 349 c0 314 -2
350 -16 350 -31 0 -194 -60 -281 -103 -48 -25 -122 -59 -163 -77 -81 -35 -323
-151 -542 -261 -208 -104 -518 -249 -533 -249 -20 0 -23 19 -30 185 -8 203
-20 286 -60 418 -43 144 -122 467 -130 532 -9 70 -23 105 -59 143 -86 93 -244
138 -416 120z m213 -188 c24 -11 51 -34 60 -50 16 -26 16 -32 3 -57 -26 -51
-65 -76 -176 -112 -82 -27 -229 -38 -289 -21 -47 12 -111 67 -111 93 0 46 99
114 215 148 88 26 242 25 298 -1z m-897 -469 c48 -22 116 -105 139 -170 16
-46 21 -197 7 -219 -13 -19 -154 79 -196 136 -18 26 -39 67 -46 92 -6 25 -15
52 -19 60 -4 8 -8 34 -9 58 -2 36 2 44 21 52 34 13 58 11 103 -9z m-433 -182
c105 -42 177 -80 197 -104 9 -10 4 -15 -22 -20 -18 -4 -68 -18 -112 -32 -107
-33 -109 -32 -257 112 -84 82 -84 82 24 84 59 1 84 -5 170 -40z m3182 -375 l0
-269 -340 -186 c-187 -102 -454 -248 -594 -325 l-253 -140 -90 -165 c-49 -90
-140 -263 -203 -384 -139 -271 -148 -286 -160 -282 -9 3 -8 807 1 831 3 6 64
41 137 78 72 38 386 200 697 362 l565 294 3 61 c2 34 0 61 -3 61 -3 0 -207
-106 -453 -236 -246 -130 -526 -278 -622 -329 -96 -50 -241 -127 -321 -170
l-146 -78 -6 -1721 c-4 -946 -5 -1722 -2 -1724 2 -2 148 62 325 142 176 81
326 149 333 152 10 3 13 -6 13 -34 -1 -35 -9 -46 -104 -138 -57 -54 -111 -103
-121 -109 -9 -5 -33 -22 -52 -37 -19 -15 -89 -50 -154 -78 -127 -55 -219 -74
-365 -75 l-75 0 0 1904 0 1905 985 483 c542 266 990 481 995 480 6 -2 10 -102
10 -273z m899 -111 c-247 -360 -335 -513 -385 -670 -12 -37 -30 -95 -40 -128
-28 -87 -88 -335 -101 -418 -8 -48 -12 -344 -14 -897 l-3 -825 -63 -34 c-1117
-596 -1397 -744 -1485 -786 -215 -104 -283 -135 -291 -135 -5 0 -12 275 -15
623 -10 925 -9 1193 8 1342 12 117 18 138 53 210 22 44 53 92 69 106 40 37
160 107 208 121 22 7 42 15 45 19 6 9 178 41 188 35 4 -2 41 -6 83 -10 42 -3
112 -17 154 -31 93 -30 106 -31 136 -6 22 18 23 20 9 62 -17 50 -36 75 -135
175 -38 39 -110 123 -160 188 -49 65 -108 135 -129 155 -21 21 -36 43 -32 49
8 13 68 41 166 78 35 14 71 31 80 38 8 7 33 19 54 26 21 7 105 45 185 85 166
83 247 122 556 265 254 117 473 227 735 368 102 55 186 98 188 97 2 -2 -27
-47 -64 -102z m-3081 -2328 c4 -1633 1 -1995 -14 -1995 -4 0 -14 6 -21 14 -8
7 -33 23 -57 35 -23 12 -52 32 -64 44 -12 12 -26 22 -32 22 -5 1 -9 7 -7 14 1
7 -1 10 -6 7 -5 -3 -29 18 -53 45 -24 28 -64 72 -88 98 -69 74 -210 264 -183
247 8 -5 11 0 8 16 -3 13 -5 26 -5 31 -1 4 -8 7 -16 7 -8 0 -15 8 -15 18 0 12
-2 14 -8 4 -6 -9 -12 -6 -20 13 -6 14 -8 25 -3 25 6 0 6 12 0 27 -4 16 -18 69
-29 118 -12 50 -26 106 -31 125 -5 19 -12 46 -15 60 -3 14 -17 66 -31 115 -31
111 -29 104 -43 228 -7 56 -18 147 -25 202 -16 116 -13 510 4 645 6 47 18 146
25 220 14 127 28 210 45 255 4 11 21 61 36 110 16 50 33 96 38 103 5 6 7 12 4
12 -7 0 121 261 138 280 7 8 24 37 38 63 13 26 35 58 48 71 13 12 53 53 89 91
36 37 94 88 130 113 94 66 110 82 131 131 11 24 21 42 23 40 3 -2 6 -746 9
-1654z m1153 1283 c70 -73 147 -164 193 -227 37 -52 31 -61 -44 -61 -79 -1
-170 -17 -305 -54 -69 -19 -133 -38 -143 -41 -17 -7 -17 -5 1 41 10 27 46 90
80 141 34 50 80 130 103 177 23 47 45 86 48 86 4 0 34 -28 67 -62z m1668 -160
c39 -88 102 -306 130 -443 23 -119 53 -492 41 -528 -2 -7 -6 -70 -9 -142 -9
-209 -39 -381 -95 -557 -16 -51 -38 -121 -48 -156 l-18 -63 -31 41 c-53 68
-58 126 -49 495 5 176 8 379 7 450 0 72 -2 281 -4 465 -2 263 0 350 11 403 11
51 18 66 29 62 10 -3 12 0 8 10 -3 8 -3 15 0 15 3 0 15 -24 28 -52z m-3547
-2070 c1 -38 0 -40 -7 -15 -7 23 -5 57 4 57 1 0 2 -19 3 -42z"/>
<path d="M4710 3117 c-58 -30 -208 -109 -335 -174 -243 -126 -726 -382 -834
-442 -72 -41 -99 -71 -107 -122 -5 -29 -1 -41 19 -65 24 -28 26 -28 64 -15 21
8 56 25 78 39 121 76 794 436 1136 608 59 29 109 60 113 69 13 34 6 113 -12
134 l-17 22 -105 -54z"/>
<path d="M4550 2634 c-145 -74 -269 -139 -275 -144 -17 -13 -533 -293 -662
-359 -130 -66 -168 -99 -179 -157 -7 -41 19 -87 52 -92 18 -2 116 49 389 203
154 87 507 275 750 400 105 54 198 104 208 113 29 25 20 173 -11 172 -4 0
-126 -61 -272 -136z"/>
<path d="M4745 2327 c-33 -19 -139 -76 -235 -127 -96 -51 -245 -131 -330 -178
-85 -47 -272 -148 -415 -224 -264 -141 -319 -180 -330 -228 -8 -37 10 -78 40
-92 31 -14 65 1 275 122 159 91 409 228 605 330 77 40 207 111 290 157 82 46
155 83 162 83 36 0 59 121 33 171 -14 26 -25 24 -95 -14z"/>
<path d="M4760 1928 c-48 -28 -720 -388 -965 -516 -297 -155 -330 -176 -349
-216 -21 -44 -20 -58 5 -90 35 -44 52 -39 319 106 190 103 418 227 740 401
113 61 230 124 260 139 70 36 80 50 80 111 0 87 -24 104 -90 65z"/>
<path d="M774 4896 c-37 -16 -44 -26 -55 -74 -6 -28 -3 -47 11 -79 46 -104
186 -89 204 23 9 56 -5 96 -44 122 -37 25 -71 27 -116 8z"/>
<path d="M5334 701 c-74 -45 -103 -135 -66 -207 27 -52 49 -70 103 -85 37 -10
51 -10 77 2 18 8 32 18 32 22 0 5 4 6 9 2 6 -3 15 4 21 15 6 11 17 20 24 20 8
0 17 8 21 18 29 72 26 117 -10 156 -13 14 -20 28 -16 32 3 4 1 4 -5 1 -6 -3
-20 2 -31 13 -12 10 -24 16 -27 13 -3 -4 -6 -2 -6 4 0 18 -93 14 -126 -6z"/>
</g>
</svg>
