<svg width="472" height="502" viewBox="0 0 472 502" fill="none" xmlns="http://www.w3.org/2000/svg">
<rect x="2" y="2" width="212" height="492" rx="8" fill="white" stroke="black" stroke-width="4"/>
<rect x="69" y="19" width="208" height="148" rx="12" fill="url(#paint0_linear_360_168)" stroke="black" stroke-width="2"/>
<rect x="149" y="319" width="208" height="148" rx="12" fill="url(#paint1_linear_360_168)" stroke="black" stroke-width="2"/>
<g clip-path="url(#clip0_360_168)">
<path d="M435.4 174.15L445.737 195.706L440.946 198.003L430.61 176.447L421.029 181.041C419.123 181.955 416.933 182.074 414.939 181.373C412.946 180.672 411.312 179.207 410.398 177.301L405.804 167.721L379.458 180.355C378.187 180.964 377.211 182.053 376.744 183.382C376.276 184.711 376.356 186.172 376.965 187.442L393.044 220.974L388.254 223.271L372.175 189.739C370.956 187.198 370.797 184.277 371.732 181.619C372.667 178.961 374.62 176.783 377.161 175.565L403.507 162.931L435.4 174.15ZM447.837 212.374L452.628 210.077L457.222 219.657C458.44 222.198 458.599 225.119 457.664 227.777C456.729 230.436 454.776 232.613 452.235 233.832L413.914 252.208C411.373 253.427 408.452 253.586 405.794 252.651C403.135 251.715 400.957 249.763 399.739 247.222L395.145 237.641L399.935 235.344L404.529 244.925C405.138 246.195 406.227 247.172 407.557 247.639C408.886 248.107 410.346 248.027 411.616 247.418L449.938 229.042C451.209 228.432 452.185 227.343 452.653 226.014C453.12 224.685 453.041 223.225 452.431 221.954L447.837 212.374ZM383.366 231.506C382.73 231.811 382.242 232.356 382.008 233.02C381.775 233.685 381.814 234.415 382.119 235.05C382.424 235.685 382.968 236.173 383.633 236.407C384.297 236.641 385.027 236.601 385.663 236.297L457.516 201.841C458.151 201.536 458.639 200.992 458.873 200.327C459.107 199.663 459.067 198.933 458.763 198.297C458.458 197.662 457.913 197.174 457.249 196.94C456.584 196.706 455.854 196.746 455.219 197.051L383.366 231.506Z" fill="black"/>
</g>
<g clip-path="url(#clip1_360_168)">
<path d="M102.62 427.943C103.671 428.877 104.308 430.19 104.391 431.594C104.474 432.998 103.996 434.377 103.062 435.428L99.5395 439.392C98.6054 440.443 97.292 441.08 95.8882 441.163C94.4844 441.246 93.1052 440.767 92.054 439.833L44.4923 397.569C43.4411 396.635 42.804 395.322 42.7213 393.918C42.6385 392.514 43.1167 391.135 44.0508 390.084L47.5728 386.12C48.5069 385.069 49.8203 384.432 51.2241 384.349C52.6279 384.267 54.0071 384.745 55.0583 385.679L102.62 427.943ZM58.5803 381.715C56.4779 379.847 53.7195 378.891 50.9119 379.056C48.1043 379.222 45.4775 380.496 43.6093 382.598L40.0873 386.562C38.2191 388.664 37.2626 391.423 37.4282 394.23C37.5938 397.038 38.8679 399.665 40.9703 401.533L88.532 443.797C90.6344 445.665 93.3928 446.621 96.2004 446.456C99.008 446.29 101.635 445.016 103.503 442.914L107.025 438.95C108.893 436.848 109.85 434.09 109.684 431.282C109.518 428.474 108.244 425.848 106.142 423.979L58.5803 381.715Z" fill="black"/>
<path d="M61.666 402.19C61.199 402.716 60.5423 403.034 59.8404 403.076C59.1385 403.117 58.4489 402.878 57.9233 402.411C57.3977 401.944 57.0792 401.287 57.0378 400.585C56.9964 399.883 57.2355 399.194 57.7025 398.668C58.1696 398.142 58.8263 397.824 59.5282 397.783C60.2301 397.741 60.9197 397.98 61.4453 398.447C61.9709 398.914 62.2894 399.571 62.3308 400.273C62.3722 400.975 62.1331 401.664 61.666 402.19ZM53.7391 395.146C53.272 395.672 52.6153 395.99 51.9134 396.032C51.2115 396.073 50.5219 395.834 49.9963 395.367C49.4707 394.9 49.1522 394.243 49.1108 393.541C49.0694 392.839 49.3085 392.15 49.7756 391.624C50.2426 391.098 50.8993 390.78 51.6012 390.739C52.3031 390.697 52.9927 390.936 53.5183 391.403C54.0439 391.87 54.3624 392.527 54.4038 393.229C54.4452 393.931 54.2061 394.62 53.7391 395.146ZM127.274 400.198C128.326 401.133 128.963 402.446 129.045 403.85C129.128 405.254 128.65 406.633 127.716 407.684L124.194 411.647C123.26 412.699 121.946 413.336 120.542 413.418C119.139 413.501 117.76 413.023 116.708 412.089L69.1466 369.825C68.0954 368.891 67.4583 367.577 67.3755 366.174C67.2928 364.77 67.771 363.391 68.7051 362.339L72.2271 358.376C73.1612 357.325 74.4746 356.688 75.8784 356.605C77.2822 356.522 78.6614 357 79.7126 357.934L127.274 400.198ZM83.2346 353.971C81.1322 352.103 78.3738 351.146 75.5662 351.312C72.7586 351.477 70.1318 352.752 68.2636 354.854L64.7416 358.817C62.8734 360.92 61.9169 363.678 62.0825 366.486C62.2481 369.293 63.5222 371.92 65.6246 373.788L113.186 416.052C115.289 417.921 118.047 418.877 120.855 418.711C123.662 418.546 126.289 417.272 128.157 415.169L131.679 411.206C133.547 409.104 134.504 406.345 134.338 403.538C134.173 400.73 132.899 398.103 130.796 396.235L83.2346 353.971Z" fill="black"/>
<path d="M86.3199 374.446C85.8528 374.971 85.1961 375.29 84.4942 375.331C83.7923 375.373 83.1027 375.133 82.5771 374.666C82.0515 374.199 81.733 373.543 81.6916 372.841C81.6502 372.139 81.8893 371.449 82.3564 370.924C82.8234 370.398 83.4801 370.08 84.182 370.038C84.8839 369.997 85.5735 370.236 86.0991 370.703C86.6247 371.17 86.9432 371.827 86.9846 372.529C87.026 373.23 86.7869 373.92 86.3199 374.446ZM78.3929 367.402C77.9259 367.927 77.2692 368.246 76.5673 368.287C75.8654 368.329 75.1758 368.089 74.6502 367.622C74.1246 367.155 73.8061 366.499 73.7647 365.797C73.7233 365.095 73.9624 364.405 74.4294 363.88C74.8965 363.354 75.5532 363.036 76.2551 362.994C76.957 362.953 77.6466 363.192 78.1722 363.659C78.6978 364.126 79.0163 364.783 79.0577 365.485C79.0991 366.187 78.86 366.876 78.3929 367.402Z" fill="black"/>
</g>
<rect x="89" y="39" width="208" height="148" rx="12" fill="url(#paint2_linear_360_168)" stroke="black" stroke-width="2"/>
<rect x="109" y="79" width="208" height="148" rx="12" fill="url(#paint3_linear_360_168)" stroke="black" stroke-width="2"/>
<rect x="263.5" y="108.5" width="31" height="79" fill="white" stroke="black"/>
<rect x="218.5" y="108.5" width="31" height="79" fill="white" stroke="black"/>
<rect x="172.5" y="108.5" width="31" height="79" fill="white" stroke="black"/>
<path fill-rule="evenodd" clip-rule="evenodd" d="M191 357.438C191.414 357.438 191.812 357.602 192.105 357.895C192.398 358.188 192.562 358.586 192.562 359V363.688H197.25C197.664 363.688 198.062 363.852 198.355 364.145C198.648 364.438 198.812 364.836 198.812 365.25C198.812 365.664 198.648 366.062 198.355 366.355C198.062 366.648 197.664 366.812 197.25 366.812H192.562V371.5C192.562 371.914 192.398 372.312 192.105 372.605C191.812 372.898 191.414 373.062 191 373.062C190.586 373.062 190.188 372.898 189.895 372.605C189.602 372.312 189.438 371.914 189.438 371.5V366.812H184.75C184.336 366.812 183.938 366.648 183.645 366.355C183.352 366.062 183.188 365.664 183.188 365.25C183.188 364.836 183.352 364.438 183.645 364.145C183.938 363.852 184.336 363.688 184.75 363.688H189.438V359C189.438 358.586 189.602 358.188 189.895 357.895C190.188 357.602 190.586 357.438 191 357.438Z" fill="white"/>
<path d="M191 337.125C193.072 337.125 195.059 337.948 196.524 339.413C197.989 340.878 198.812 342.865 198.812 344.938V346.5H183.188V344.938C183.188 342.865 184.011 340.878 185.476 339.413C186.941 337.948 188.928 337.125 191 337.125ZM201.938 346.5V344.938C201.938 342.037 200.785 339.255 198.734 337.204C196.683 335.152 193.901 334 191 334C188.099 334 185.317 335.152 183.266 337.204C181.215 339.255 180.062 342.037 180.062 344.938V346.5H169.125V377.75C169.125 379.408 169.783 380.997 170.956 382.169C172.128 383.342 173.717 384 175.375 384H206.625C208.283 384 209.872 383.342 211.044 382.169C212.217 380.997 212.875 379.408 212.875 377.75V346.5H201.938ZM172.25 349.625H209.75V377.75C209.75 378.579 209.421 379.374 208.835 379.96C208.249 380.546 207.454 380.875 206.625 380.875H175.375C174.546 380.875 173.751 380.546 173.165 379.96C172.579 379.374 172.25 378.579 172.25 377.75V349.625Z" fill="white"/>
<g clip-path="url(#clip2_360_168)">
<path d="M260.625 344.188C260.625 348.209 259.694 351.868 258.175 354.6C257.531 354.117 256.798 353.765 256.018 353.566C255.238 353.366 254.427 353.322 253.63 353.436C252.773 350.429 250.843 347.189 248.001 344.344C247.52 343.859 247.018 343.396 246.498 342.953C248.993 341.748 251.729 341.123 254.5 341.125C256.616 341.125 258.65 341.483 260.542 342.142C260.597 342.813 260.625 343.495 260.625 344.188ZM260.625 359.5C260.625 359.725 260.613 359.946 260.588 360.165C263.706 360.106 267.326 359.084 270.789 357.084C271.386 356.74 271.969 356.371 272.535 355.978C271.604 351.204 268.817 346.993 264.787 344.27C264.663 344.929 264.515 345.582 264.343 346.23C263.301 350.117 261.452 353.415 259.271 355.66C260.12 356.71 260.625 358.048 260.625 359.5ZM260.205 361.73C259.911 362.484 259.47 363.173 258.907 363.756C258.345 364.339 257.672 364.805 256.928 365.126C258.536 367.79 261.231 370.409 264.692 372.405C265.304 372.761 265.922 373.084 266.545 373.376C268.368 371.794 269.862 369.867 270.941 367.707C272.02 365.547 272.663 363.195 272.832 360.786C272.197 361.011 271.543 361.214 270.869 361.396C266.998 362.434 263.234 362.486 260.205 361.733V361.73ZM254.5 365.625C253.122 365.625 251.848 365.169 250.825 364.4C249.312 367.126 248.387 370.776 248.387 374.785C248.387 375.491 248.415 376.183 248.47 376.861C250.409 377.534 252.447 377.876 254.5 377.875C257.379 377.875 260.104 377.213 262.533 376.031C262.006 375.585 261.498 375.118 261.011 374.629C258.178 371.793 256.249 368.562 255.388 365.564C255.1 365.605 254.804 365.625 254.5 365.625ZM248.375 359.5C248.375 359.255 248.389 359.011 248.418 358.768C245.294 358.82 241.665 359.843 238.189 361.852C237.594 362.194 237.014 362.561 236.449 362.951C236.903 365.323 237.819 367.582 239.146 369.599C240.473 371.617 242.184 373.353 244.182 374.708C244.305 374.036 244.457 373.369 244.636 372.709C245.677 368.828 247.514 365.536 249.689 363.291C248.837 362.211 248.375 360.875 248.375 359.5ZM238.125 357.565C242.005 356.523 245.775 356.477 248.807 357.237C249.407 355.724 250.592 354.511 252.084 353.868C250.479 351.191 247.778 348.561 244.302 346.555C243.709 346.211 243.102 345.892 242.483 345.599C240.657 347.178 239.16 349.101 238.077 351.259C236.995 353.417 236.348 355.766 236.174 358.174C236.805 357.949 237.455 357.746 238.125 357.565ZM254.5 362.563C255.312 362.563 256.091 362.24 256.665 361.666C257.24 361.091 257.562 360.312 257.562 359.5C257.562 358.688 257.24 357.909 256.665 357.334C256.091 356.76 255.312 356.438 254.5 356.438C253.688 356.438 252.909 356.76 252.334 357.334C251.76 357.909 251.437 358.688 251.437 359.5C251.437 360.312 251.76 361.091 252.334 361.666C252.909 362.24 253.688 362.563 254.5 362.563Z" fill="white"/>
<path d="M254.5 380.938C248.814 380.938 243.362 378.679 239.341 374.659C235.321 370.638 233.062 365.186 233.062 359.5C233.062 353.814 235.321 348.362 239.341 344.341C243.362 340.321 248.814 338.062 254.5 338.062C260.186 338.062 265.638 340.321 269.659 344.341C273.679 348.362 275.938 353.814 275.938 359.5C275.938 365.186 273.679 370.638 269.659 374.659C265.638 378.679 260.186 380.938 254.5 380.938ZM254.5 384C260.998 384 267.229 381.419 271.824 376.824C276.419 372.229 279 365.998 279 359.5C279 353.002 276.419 346.771 271.824 342.176C267.229 337.581 260.998 335 254.5 335C248.002 335 241.771 337.581 237.176 342.176C232.581 346.771 230 353.002 230 359.5C230 365.998 232.581 372.229 237.176 376.824C241.771 381.419 248.002 384 254.5 384Z" fill="white"/>
</g>
<g clip-path="url(#clip3_360_168)">
<path d="M340 502C351.935 502 363.381 497.259 371.82 488.82C380.259 480.381 385 468.935 385 457C385 445.065 380.259 433.619 371.82 425.18C363.381 416.741 351.935 412 340 412C328.065 412 316.619 416.741 308.18 425.18C299.741 433.619 295 445.065 295 457C295 468.935 299.741 480.381 308.18 488.82C316.619 497.259 328.065 502 340 502ZM321.944 440.648L340 453.546V442.938C340 442.421 340.143 441.915 340.412 441.474C340.68 441.034 341.065 440.675 341.524 440.439C341.983 440.203 342.498 440.097 343.013 440.134C343.528 440.171 344.023 440.349 344.444 440.648L364.131 454.711C364.496 454.971 364.793 455.314 364.998 455.712C365.203 456.111 365.31 456.552 365.31 457C365.31 457.448 365.203 457.889 364.998 458.288C364.793 458.686 364.496 459.029 364.131 459.289L344.444 473.352C344.023 473.651 343.528 473.829 343.013 473.866C342.498 473.903 341.983 473.797 341.524 473.561C341.065 473.325 340.68 472.966 340.412 472.526C340.143 472.085 340 471.579 340 471.062V460.454L321.944 473.352C321.523 473.651 321.028 473.829 320.513 473.866C319.998 473.903 319.483 473.797 319.024 473.561C318.565 473.325 318.18 472.966 317.912 472.526C317.643 472.085 317.5 471.579 317.5 471.062V442.938C317.5 442.421 317.643 441.915 317.912 441.474C318.18 441.034 318.565 440.675 319.024 440.439C319.483 440.203 319.998 440.097 320.513 440.134C321.028 440.171 321.523 440.349 321.944 440.648Z" fill="black"/>
</g>
<rect x="126.5" y="108.5" width="31" height="79" fill="white" stroke="black"/>
<rect x="129" y="159" width="208" height="148" rx="12" fill="url(#paint4_linear_360_168)" stroke="black" stroke-width="2"/>
<g clip-path="url(#clip4_360_168)">
<path d="M161.47 250.066C161.275 250.36 161.164 250.702 161.151 251.055C161.137 251.407 161.221 251.757 161.392 252.065C161.564 252.373 161.817 252.628 162.124 252.802C162.431 252.976 162.78 253.062 163.133 253.051L170.379 252.814L161.971 265.434C161.776 265.728 161.665 266.07 161.652 266.423C161.638 266.775 161.722 267.125 161.893 267.433C162.065 267.741 162.318 267.996 162.625 268.17C162.932 268.344 163.281 268.43 163.634 268.418L182.843 267.792C183.196 267.78 183.539 267.672 183.834 267.478C184.129 267.285 184.365 267.014 184.516 266.695C184.667 266.377 184.728 266.022 184.691 265.672C184.655 265.321 184.522 264.987 184.308 264.706L175.097 252.661L182.342 252.424C182.695 252.413 183.038 252.304 183.333 252.111C183.628 251.917 183.864 251.646 184.015 251.328C184.166 251.009 184.227 250.655 184.19 250.304C184.154 249.953 184.021 249.619 183.807 249.338L173.764 236.205C173.578 235.961 173.337 235.766 173.06 235.635C172.784 235.504 172.48 235.44 172.174 235.45C171.868 235.46 171.569 235.543 171.302 235.692C171.034 235.841 170.806 236.052 170.637 236.307L161.47 250.066Z" fill="black"/>
<path d="M158.371 283.974C156.333 284.041 154.353 283.295 152.865 281.901C151.377 280.507 150.503 278.579 150.437 276.541L148.934 230.437C148.868 228.399 149.614 226.419 151.008 224.931C152.402 223.443 154.33 222.569 156.368 222.503L187.103 221.501C189.141 221.435 191.122 222.18 192.61 223.574C194.098 224.969 194.971 226.897 195.037 228.934L196.54 275.038C196.607 277.076 195.861 279.057 194.467 280.545C193.073 282.032 191.145 282.906 189.107 282.972L158.371 283.974ZM156.493 226.345C155.474 226.378 154.51 226.815 153.813 227.559C153.116 228.303 152.743 229.293 152.776 230.312L154.279 276.415C154.312 277.434 154.749 278.398 155.493 279.095C156.237 279.792 157.227 280.165 158.246 280.132L188.982 279.13C190.001 279.097 190.965 278.66 191.662 277.916C192.359 277.172 192.732 276.182 192.698 275.163L191.196 229.06C191.162 228.041 190.726 227.077 189.982 226.38C189.238 225.683 188.247 225.31 187.228 225.343L156.493 226.345Z" fill="black"/>
</g>
<defs>
<linearGradient id="paint0_linear_360_168" x1="278" y1="168" x2="59.8973" y2="30.889" gradientUnits="userSpaceOnUse">
<stop stop-color="#BDD5C6"/>
<stop offset="1" stop-color="#00F425"/>
</linearGradient>
<linearGradient id="paint1_linear_360_168" x1="358" y1="468" x2="139.897" y2="330.889" gradientUnits="userSpaceOnUse">
<stop stop-color="#B356D8"/>
<stop offset="1" stop-color="#4558A5"/>
</linearGradient>
<linearGradient id="paint2_linear_360_168" x1="298" y1="188" x2="79.8973" y2="50.889" gradientUnits="userSpaceOnUse">
<stop stop-color="#DF4018"/>
<stop offset="1" stop-color="#A54573"/>
</linearGradient>
<linearGradient id="paint3_linear_360_168" x1="318" y1="228" x2="99.8973" y2="90.889" gradientUnits="userSpaceOnUse">
<stop stop-color="#D8AF56"/>
<stop offset="1" stop-color="#A57545"/>
</linearGradient>
<linearGradient id="paint4_linear_360_168" x1="338" y1="308" x2="119.897" y2="170.889" gradientUnits="userSpaceOnUse">
<stop stop-color="#56D888"/>
<stop offset="1" stop-color="#4577A5"/>
</linearGradient>
<clipPath id="clip0_360_168">
<rect width="85" height="85" fill="white" transform="translate(358 184.753) rotate(-25.6189)"/>
</clipPath>
<clipPath id="clip1_360_168">
<rect width="84.8357" height="84.8357" fill="white" transform="translate(82.3516 339) rotate(41.6247)"/>
</clipPath>
<clipPath id="clip2_360_168">
<rect width="49" height="49" fill="white" transform="translate(230 335)"/>
</clipPath>
<clipPath id="clip3_360_168">
<rect width="90" height="90" fill="white" transform="translate(295 412)"/>
</clipPath>
<clipPath id="clip4_360_168">
<rect width="61.5038" height="61.5038" fill="white" transform="translate(143.004 284.475) rotate(-91.8671)"/>
</clipPath>
</defs>
</svg>
