<?xml version="1.0" encoding="UTF-8"?>
<!DOCTYPE svg PUBLIC "-//W3C//DTD SVG 1.1//EN" "http://www.w3.org/Graphics/SVG/1.1/DTD/svg11.dtd">
<svg xmlns="http://www.w3.org/2000/svg" version="1.1" width="600px" height="600px" style="shape-rendering:geometricPrecision; text-rendering:geometricPrecision; image-rendering:optimizeQuality; fill-rule:evenodd; clip-rule:evenodd" xmlns:xlink="http://www.w3.org/1999/xlink">
<g><path style="opacity:0.989" fill="#fdfefe" d="M 249.5,-0.5 C 282.5,-0.5 315.5,-0.5 348.5,-0.5C 431.374,15.0756 497.041,57.0756 545.5,125.5C 516.134,138.805 486.968,152.805 458,167.5C 457.5,147.503 457.333,127.503 457.5,107.5C 449.007,108.498 441.007,110.998 433.5,115C 397.82,132.255 361.987,149.421 326,166.5C 325.055,166.095 324.388,165.428 324,164.5C 323.329,149.768 321.996,135.101 320,120.5C 313.914,101.897 309.247,82.8969 306,63.5C 300.527,54.0314 292.36,48.5314 281.5,47C 263.744,44.5227 247.744,48.8561 233.5,60C 225.444,66.7308 223.277,74.8974 227,84.5C 247.928,103.723 258.761,127.723 259.5,156.5C 250.087,153.101 240.42,150.435 230.5,148.5C 230.167,147.833 229.833,147.167 229.5,146.5C 238.509,127.397 235.509,110.563 220.5,96C 211.444,90.659 201.777,89.3256 191.5,92C 189.04,93.4578 186.873,95.2911 185,97.5C 183.348,102.045 182.182,106.711 181.5,111.5C 170.169,102.886 157.503,100.386 143.5,104C 140.038,105.565 136.705,107.398 133.5,109.5C 118.522,100.765 103.522,100.598 88.5,109C 71.8956,123.321 69.0623,139.821 80,158.5C 83.7423,163.291 88.5756,165.124 94.5,164C 95.0585,163.275 95.3918,162.442 95.5,161.5C 91.839,156.326 88.339,150.993 85,145.5C 82.6977,131.131 88.1977,120.964 101.5,115C 110.01,113.886 118.344,114.552 126.5,117C 135.788,122.621 143.455,129.954 149.5,139C 153.5,141 157.5,143 161.5,145C 166.5,145.667 171.5,145.667 176.5,145C 184.365,143.876 192.031,142.043 199.5,139.5C 204.15,140.138 208.15,142.138 211.5,145.5C 210.91,146.799 209.91,147.632 208.5,148C 199.498,148.047 190.498,148.047 181.5,148C 175.6,149.761 169.6,151.095 163.5,152C 139.979,161.344 121.145,176.511 107,197.5C 78.5543,216.627 59.2209,242.627 49,275.5C 34.6772,329.202 36.6772,382.202 55,434.5C 63.7229,454.293 74.7229,472.626 88,489.5C 104.437,507.457 123.604,521.624 145.5,532C 158.553,536.051 171.886,537.384 185.5,536C 188.132,535.551 190.632,534.717 193,533.5C 198.396,537.451 203.896,541.284 209.5,545C 215.561,547.864 221.894,549.864 228.5,551C 237.159,552.232 245.825,553.398 254.5,554.5C 271.266,551.819 288.1,551.152 305,552.5C 327.15,552.282 347.316,545.949 365.5,533.5C 367.167,534.333 368.833,535.167 370.5,536C 383.665,537.144 396.665,536.144 409.5,533C 454.097,516.405 486.597,486.572 507,443.5C 527.32,397.418 533.32,349.418 525,299.5C 519.938,275.319 511.104,252.653 498.5,231.5C 503.194,217.649 509.027,204.315 516,191.5C 528,174.167 540,156.833 552,139.5C 552.671,138.748 553.504,138.414 554.5,138.5C 604.016,225.026 611.183,315.026 576,408.5C 543.5,485 489,539.5 412.5,572C 318.104,607.559 227.437,599.893 140.5,549C 57.9873,494.877 11.4873,418.377 1,319.5C -4.90128,213.779 32.5987,127.279 113.5,60C 153.834,28.668 199.167,8.50138 249.5,-0.5 Z"/></g>
<g><path style="opacity:1" fill="#070605" d="M 545.5,125.5 C 560.843,118.23 563.843,122.563 554.5,138.5C 553.504,138.414 552.671,138.748 552,139.5C 540,156.833 528,174.167 516,191.5C 509.027,204.315 503.194,217.649 498.5,231.5C 511.104,252.653 519.938,275.319 525,299.5C 533.32,349.418 527.32,397.418 507,443.5C 486.597,486.572 454.097,516.405 409.5,533C 396.665,536.144 383.665,537.144 370.5,536C 368.833,535.167 367.167,534.333 365.5,533.5C 347.316,545.949 327.15,552.282 305,552.5C 288.1,551.152 271.266,551.819 254.5,554.5C 245.825,553.398 237.159,552.232 228.5,551C 221.894,549.864 215.561,547.864 209.5,545C 203.896,541.284 198.396,537.451 193,533.5C 190.632,534.717 188.132,535.551 185.5,536C 171.886,537.384 158.553,536.051 145.5,532C 123.604,521.624 104.437,507.457 88,489.5C 74.7229,472.626 63.7229,454.293 55,434.5C 36.6772,382.202 34.6772,329.202 49,275.5C 59.2209,242.627 78.5543,216.627 107,197.5C 121.145,176.511 139.979,161.344 163.5,152C 169.6,151.095 175.6,149.761 181.5,148C 190.498,148.047 199.498,148.047 208.5,148C 209.91,147.632 210.91,146.799 211.5,145.5C 208.15,142.138 204.15,140.138 199.5,139.5C 192.031,142.043 184.365,143.876 176.5,145C 171.5,145.667 166.5,145.667 161.5,145C 157.5,143 153.5,141 149.5,139C 143.455,129.954 135.788,122.621 126.5,117C 118.344,114.552 110.01,113.886 101.5,115C 88.1977,120.964 82.6977,131.131 85,145.5C 88.339,150.993 91.839,156.326 95.5,161.5C 95.3918,162.442 95.0585,163.275 94.5,164C 88.5756,165.124 83.7423,163.291 80,158.5C 69.0623,139.821 71.8956,123.321 88.5,109C 103.522,100.598 118.522,100.765 133.5,109.5C 136.705,107.398 140.038,105.565 143.5,104C 157.503,100.386 170.169,102.886 181.5,111.5C 182.182,106.711 183.348,102.045 185,97.5C 186.873,95.2911 189.04,93.4578 191.5,92C 201.777,89.3256 211.444,90.659 220.5,96C 235.509,110.563 238.509,127.397 229.5,146.5C 229.833,147.167 230.167,147.833 230.5,148.5C 240.42,150.435 250.087,153.101 259.5,156.5C 258.761,127.723 247.928,103.723 227,84.5C 223.277,74.8974 225.444,66.7308 233.5,60C 247.744,48.8561 263.744,44.5227 281.5,47C 292.36,48.5314 300.527,54.0314 306,63.5C 309.247,82.8969 313.914,101.897 320,120.5C 321.996,135.101 323.329,149.768 324,164.5C 324.388,165.428 325.055,166.095 326,166.5C 361.987,149.421 397.82,132.255 433.5,115C 441.007,110.998 449.007,108.498 457.5,107.5C 457.333,127.503 457.5,147.503 458,167.5C 486.968,152.805 516.134,138.805 545.5,125.5 Z"/></g>
<g><path style="opacity:1" fill="#459e19" d="M 262.5,60.5 C 269.175,60.3337 275.842,60.5004 282.5,61C 291.868,64.8391 292.868,70.1724 285.5,77C 273.601,84.1451 260.934,86.1451 247.5,83C 238.023,76.9844 238.356,71.3177 248.5,66C 253.161,63.8494 257.828,62.0161 262.5,60.5 Z"/></g>
<g><path style="opacity:1" fill="#449d17" d="M 303.5,96.5 C 304.057,101.165 305.39,105.498 307.5,109.5C 309.419,113.857 310.419,118.523 310.5,123.5C 310.28,128.1 310.946,132.433 312.5,136.5C 313.654,142.987 313.821,149.654 313,156.5C 302.442,168.022 289.275,173.355 273.5,172.5C 271.877,146.141 264.711,121.475 252,98.5C 251.333,97.1667 251.333,95.8333 252,94.5C 268.602,95.8012 283.435,91.1345 296.5,80.5C 299.928,85.3561 302.261,90.6895 303.5,96.5 Z"/></g>
<g><path style="opacity:1" fill="#26580e" d="M 303.5,96.5 C 305.61,100.502 306.943,104.835 307.5,109.5C 305.39,105.498 304.057,101.165 303.5,96.5 Z"/></g>
<g><path style="opacity:1" fill="#459d1a" d="M 197.5,101.5 C 202.08,101.113 206.414,101.947 210.5,104C 220.953,113.189 223.953,124.356 219.5,137.5C 202.837,130.791 195.504,118.791 197.5,101.5 Z"/></g>
<g><path style="opacity:1" fill="#459c1c" d="M 149.5,114.5 C 164.214,114.356 177.214,119.022 188.5,128.5C 181.338,131.281 174.005,133.115 166.5,134C 158.772,129.442 152.105,123.609 146.5,116.5C 147.602,115.824 148.602,115.158 149.5,114.5 Z"/></g>
<g><path style="opacity:1" fill="#f6f8f5" d="M 439.5,127.5 C 440.833,127.5 442.167,127.5 443.5,127.5C 443.667,142.837 443.5,158.17 443,173.5C 409.118,192.192 375.285,211.026 341.5,230C 328.387,253.722 315.387,277.555 302.5,301.5C 302.167,299.833 301.833,298.167 301.5,296.5C 302.114,273.837 302.78,251.17 303.5,228.5C 343.293,208.103 382.959,187.437 422.5,166.5C 423.487,163.232 423.82,159.898 423.5,156.5C 420.309,157.092 417.309,158.259 414.5,160C 373.325,182.088 331.991,203.921 290.5,225.5C 289.167,324.167 289.167,422.833 290.5,521.5C 308.432,513.031 326.432,504.865 344.5,497C 345.635,496.251 346.635,496.417 347.5,497.5C 346.305,498.967 346.305,500.467 347.5,502C 334.454,517.685 318.12,528.685 298.5,535C 289.899,536.554 281.232,537.387 272.5,537.5C 272.167,428.165 272.5,318.831 273.5,209.5C 328.931,182.357 384.264,155.024 439.5,127.5 Z"/></g>
<g><path style="opacity:1" fill="#2b620f" d="M 310.5,123.5 C 312.054,127.567 312.72,131.9 312.5,136.5C 310.946,132.433 310.28,128.1 310.5,123.5 Z"/></g>
<g><path style="opacity:1" fill="#0f1419" d="M 107.5,133.5 C 118.103,133.239 121.77,138.239 118.5,148.5C 114.717,154.023 110.05,154.856 104.5,151C 98.909,143.961 99.909,138.128 107.5,133.5 Z"/></g>
<g><path style="opacity:1" fill="#f6f7f5" d="M 315.5,322.5 C 316.657,319.727 317.324,316.727 317.5,313.5C 319.254,307.106 322.588,301.606 327.5,297C 347.341,282.448 368.674,279.948 391.5,289.5C 393.697,289.152 395.53,288.152 397,286.5C 396.695,283.509 396.028,280.509 395,277.5C 390.333,271.5 385,266.167 379,261.5C 372.379,252.544 365.379,243.877 358,235.5C 357.316,234.216 357.483,233.049 358.5,232C 394.912,215.629 431.245,198.963 467.5,182C 485.755,172.871 503.755,163.205 521.5,153C 523.044,151.813 524.711,151.48 526.5,152C 512.129,169.806 499.962,188.972 490,209.5C 481.154,232.373 475.82,256.04 474,280.5C 473.533,324.567 473.366,368.567 473.5,412.5C 430.164,435.77 386.831,458.936 343.5,482C 334.149,486.277 324.816,490.444 315.5,494.5C 314.64,437.14 314.64,379.806 315.5,322.5 Z"/></g>
<g><path style="opacity:1" fill="#ce4d07" d="M 183.5,159.5 C 202.769,159.134 219.769,165.301 234.5,178C 231.344,179.383 228.178,180.55 225,181.5C 217.231,178.338 209.065,176.171 200.5,175C 190.921,174.899 181.421,174.732 172,174.5C 165.486,174.819 158.986,175.319 152.5,176C 147.915,177.641 143.249,178.641 138.5,179C 151.462,167.737 166.462,161.237 183.5,159.5 Z"/></g>
<g><path style="opacity:1" fill="#d04e07" d="M 174.5,190.5 C 187.184,190.168 199.851,190.501 212.5,191.5C 183.093,195.248 155.427,204.081 129.5,218C 95.8678,245.186 76.7012,280.353 72,323.5C 67.5357,368.736 72.369,412.903 86.5,456C 86.3699,457.059 85.8699,457.892 85,458.5C 78.2742,449.043 72.6075,439.043 68,428.5C 52.3161,382.159 50.3161,335.159 62,287.5C 64.477,282.069 66.1437,276.403 67,270.5C 70.0991,265.875 72.4324,260.875 74,255.5C 77.8791,252.409 80.2125,248.409 81,243.5C 90.1326,233.034 99.9659,223.201 110.5,214C 130.376,201.876 151.709,194.043 174.5,190.5 Z"/></g>
<g><path style="opacity:1" fill="#b7b7b7" d="M 114.5,320.5 C 113.732,321.263 113.232,322.263 113,323.5C 112.501,327.486 112.334,331.486 112.5,335.5C 110.835,351.79 110.335,368.123 111,384.5C 112.706,401.274 115.039,417.94 118,434.5C 125.876,465.914 139.376,494.58 158.5,520.5C 139.427,514.027 122.927,503.027 109,487.5C 92.9108,459.73 83.5774,429.73 81,397.5C 80.3333,375.833 80.3333,354.167 81,332.5C 85.4122,297.416 97.4122,265.416 117,236.5C 126.842,225.168 138.675,216.668 152.5,211C 160.906,208.634 169.239,205.968 177.5,203C 185.227,201.944 192.894,200.611 200.5,199C 205.167,198.333 209.833,198.333 214.5,199C 194.679,204.667 176.346,213.5 159.5,225.5C 144.143,238.538 132.976,254.538 126,273.5C 120.034,288.58 116.201,304.246 114.5,320.5 Z"/></g>
<g><path style="opacity:1" fill="#f97c17" d="M 184.5,527.5 C 183.167,527.5 181.833,527.5 180.5,527.5C 176.642,525.653 172.808,523.653 169,521.5C 162.333,511.5 155.667,501.5 149,491.5C 124.053,445.444 113.386,396.11 117,343.5C 118.685,317.061 124.685,291.728 135,267.5C 156.419,227.441 189.919,207.274 235.5,207C 214.1,213.697 194.766,224.03 177.5,238C 163.738,252.428 153.238,268.928 146,287.5C 129.101,344.544 129.434,401.544 147,458.5C 153.126,477.08 161.126,494.747 171,511.5C 174.981,517.311 179.481,522.644 184.5,527.5 Z"/></g>
<g><path style="opacity:1" fill="#b8b8b8" d="M 177.5,345.5 C 176.698,346.952 176.198,348.618 176,350.5C 175.5,359.16 175.334,367.827 175.5,376.5C 175.176,385.722 175.843,394.722 177.5,403.5C 182.715,453.434 202.715,496.601 237.5,533C 241.653,536.575 245.986,539.909 250.5,543C 232.809,537.771 215.142,532.104 197.5,526C 190.092,521.927 183.925,516.427 179,509.5C 167.127,491.569 158.127,472.236 152,451.5C 147.22,431.375 143.553,411.042 141,390.5C 137.942,358.204 140.942,326.537 150,295.5C 153.553,288.394 156.553,281.061 159,273.5C 163.667,266.167 168.333,258.833 173,251.5C 175.592,248.238 178.759,245.738 182.5,244C 185.538,241.297 188.205,238.297 190.5,235C 197.326,229.948 204.492,225.448 212,221.5C 217.429,221.201 222.262,219.368 226.5,216C 231.492,215.002 236.326,213.502 241,211.5C 241.5,211.833 242,212.167 242.5,212.5C 224.748,227.743 209.581,245.077 197,264.5C 183.199,289.654 176.699,316.654 177.5,345.5 Z"/></g>
<g><path style="opacity:1" fill="#fe851e" d="M 254.5,360.5 C 253.671,368.657 253.171,376.99 253,385.5C 251.314,381.634 249.481,377.134 247.5,372C 247.765,369.849 248.765,368.182 250.5,367C 249.833,366.333 249.167,365.667 248.5,365C 251.183,362.878 250.85,361.378 247.5,360.5C 247.577,359.25 248.244,358.417 249.5,358C 248.978,357.439 248.645,356.772 248.5,356C 250.657,347.67 251.49,339.17 251,330.5C 250.667,331.5 250.333,332.5 250,333.5C 249.853,330.89 249.019,328.556 247.5,326.5C 247.632,325.037 247.965,323.537 248.5,322C 245.568,320.524 245.234,318.857 247.5,317C 246.167,315.667 246.167,314.333 247.5,313C 246.386,311.551 245.386,310.217 244.5,309C 249.833,308.333 249.833,307.667 244.5,307C 245.667,305.833 246.833,304.667 248,303.5C 248.664,294.723 249.164,286.057 249.5,277.5C 248.38,273.376 245.88,271.709 242,272.5C 241.193,268.551 240.693,268.551 240.5,272.5C 238.516,272.617 236.85,271.95 235.5,270.5C 236.833,270.167 238.167,269.833 239.5,269.5C 237.554,267.917 235.554,267.417 233.5,268C 234.517,266.951 234.684,265.784 234,264.5C 232.954,266.09 231.787,267.59 230.5,269C 231.91,269.368 232.91,270.201 233.5,271.5C 231.833,272.5 230.5,273.833 229.5,275.5C 234.787,278.28 234.454,280.28 228.5,281.5C 228.5,280.5 228.5,279.5 228.5,278.5C 227.167,278.5 225.833,278.5 224.5,278.5C 224.357,280.262 224.691,281.929 225.5,283.5C 224.726,284.711 223.893,284.711 223,283.5C 222.71,285.044 222.044,286.377 221,287.5C 220.683,285.699 220.016,285.366 219,286.5C 218.661,289.036 218.161,291.536 217.5,294C 217.833,294.5 218.167,295 218.5,295.5C 219.86,293.152 221.527,292.985 223.5,295C 220.53,296.153 217.863,297.82 215.5,300C 211.808,299.996 208.475,300.996 205.5,303C 208.567,305.452 211.9,307.119 215.5,308C 213.866,308.494 212.199,308.66 210.5,308.5C 210.343,309.873 210.51,311.207 211,312.5C 212.018,311.294 212.518,311.627 212.5,313.5C 211.978,316.892 210.811,317.226 209,314.5C 207.124,316.123 205.79,315.79 205,313.5C 203.644,314.38 202.144,314.714 200.5,314.5C 200.34,316.199 200.506,317.866 201,319.5C 201.333,318.5 201.667,317.5 202,316.5C 203.602,318.263 204.102,320.096 203.5,322C 204.678,322.967 206.011,323.467 207.5,323.5C 206.5,324.167 205.5,324.833 204.5,325.5C 206.234,327.234 208.234,328.568 210.5,329.5C 208.602,330.734 206.935,330.401 205.5,328.5C 203.729,329.035 203.396,329.869 204.5,331C 201.456,331.359 201.122,332.026 203.5,333C 198.845,335.897 197.345,340.063 199,345.5C 199.333,343.5 199.667,341.5 200,339.5C 203.16,342.074 203.16,344.741 200,347.5C 199.333,348.833 198.667,348.833 198,347.5C 197.316,348.784 197.483,349.951 198.5,351C 197.333,351.5 196.5,352.333 196,353.5C 195.01,357.313 193.677,360.98 192,364.5C 191.427,356.151 191.593,347.818 192.5,339.5C 192.5,338.167 192.5,336.833 192.5,335.5C 193.912,321.699 196.412,308.032 200,294.5C 204.517,285.298 208.85,275.964 213,266.5C 214.722,263.133 216.889,260.133 219.5,257.5C 220.91,258.828 222.076,258.495 223,256.5C 223.333,257.167 223.667,257.833 224,258.5C 224.684,257.216 224.517,256.049 223.5,255C 226.232,254.587 228.899,253.92 231.5,253C 234.762,248.109 238.095,243.276 241.5,238.5C 243.929,237.708 246.095,237.708 248,238.5C 250.743,247.23 252.743,256.23 254,265.5C 254.5,297.165 254.667,328.832 254.5,360.5 Z"/></g>
<g><path style="opacity:1" fill="#fd922b" d="M 254.5,218.5 C 255.499,267.33 255.832,316.33 255.5,365.5C 255.167,365.5 254.833,365.5 254.5,365.5C 254.5,363.833 254.5,362.167 254.5,360.5C 254.667,328.832 254.5,297.165 254,265.5C 252.743,256.23 250.743,247.23 248,238.5C 246.095,237.708 243.929,237.708 241.5,238.5C 238.095,243.276 234.762,248.109 231.5,253C 228.899,253.92 226.232,254.587 223.5,255C 224.517,256.049 224.684,257.216 224,258.5C 223.667,257.833 223.333,257.167 223,256.5C 222.076,258.495 220.91,258.828 219.5,257.5C 223.091,251.902 227.091,246.569 231.5,241.5C 237.861,235.649 244.694,230.315 252,225.5C 253.118,223.235 253.951,220.901 254.5,218.5 Z"/></g>
<g><path style="opacity:1" fill="#f3f5f2" d="M 348.5,244.5 C 352.737,247.228 356.571,250.561 360,254.5C 363.285,259.454 366.952,264.12 371,268.5C 372.559,270.217 373.392,272.217 373.5,274.5C 357.954,274.803 342.954,277.803 328.5,283.5C 328.167,283.167 327.833,282.833 327.5,282.5C 331.579,274.001 336.413,266.001 342,258.5C 343.921,253.661 346.088,248.994 348.5,244.5 Z"/></g>
<g><path style="opacity:1" fill="#bb550e" d="M 253.5,218.5 C 253.833,218.5 254.167,218.5 254.5,218.5C 253.951,220.901 253.118,223.235 252,225.5C 244.694,230.315 237.861,235.649 231.5,241.5C 229.195,242.787 226.862,244.12 224.5,245.5C 222.455,249.48 219.622,252.813 216,255.5C 215.333,254.167 215.333,252.833 216,251.5C 219.451,248.916 221.617,245.582 222.5,241.5C 230.904,231.141 241.238,223.475 253.5,218.5 Z"/></g>
<g><path style="opacity:1" fill="#6e8a58" d="M 496.5,259.5 C 496.289,261.424 495.623,261.757 494.5,260.5C 494.842,259.662 495.508,259.328 496.5,259.5 Z"/></g>
<g><path style="opacity:1" fill="#f67615" d="M 496.5,259.5 C 498.226,261.942 499.726,264.609 501,267.5C 515.336,311.222 517.336,355.555 507,400.5C 503.205,408.94 500.205,417.606 498,426.5C 495.174,423.516 492.841,420.183 491,416.5C 491.546,368.168 491.546,319.835 491,271.5C 491.498,267.509 492.665,263.842 494.5,260.5C 495.623,261.757 496.289,261.424 496.5,259.5 Z"/></g>
<g><path style="opacity:1" fill="#fd801b" d="M 247.5,360.5 C 246.737,361.268 245.737,361.768 244.5,362C 246.167,362.333 247.833,362.667 249.5,363C 247.096,363.508 246.429,364.675 247.5,366.5C 245.813,367.568 244.146,367.401 242.5,366C 243.711,365.107 243.711,364.274 242.5,363.5C 241.833,364.167 241.167,364.833 240.5,365.5C 239.315,364.147 237.981,362.98 236.5,362C 237.167,361.667 237.833,361.333 238.5,361C 236.833,360 235.167,359 233.5,358C 235.669,359.114 237.502,358.614 239,356.5C 239.186,354.1 239.686,351.766 240.5,349.5C 241.59,348.273 242.924,347.44 244.5,347C 242.552,345.561 241.219,343.728 240.5,341.5C 240.824,339.431 241.658,339.098 243,340.5C 243.5,340 244,339.5 244.5,339C 242.914,335.867 240.58,335.034 237.5,336.5C 236.5,336 235.5,335.5 234.5,335C 234.475,332.988 234.475,330.988 234.5,329C 234.387,327.72 233.72,326.887 232.5,326.5C 232.968,328.113 232.301,329.613 230.5,331C 231.5,332 232.5,333 233.5,334C 231.345,334.116 229.345,333.783 227.5,333C 229.004,334.491 229.837,336.324 230,338.5C 230.72,336.745 231.887,335.911 233.5,336C 232.178,340.121 231.345,344.287 231,348.5C 228.832,349.629 228.332,351.129 229.5,353C 228.101,353.595 226.768,353.428 225.5,352.5C 223.664,355.252 222.664,358.252 222.5,361.5C 224.346,361.222 225.68,361.889 226.5,363.5C 225.112,365.109 224.112,366.942 223.5,369C 223.892,370.011 224.559,370.511 225.5,370.5C 225.023,371.478 224.357,372.311 223.5,373C 229.214,378.075 228.714,379.242 222,376.5C 220.831,377.009 219.998,377.842 219.5,379C 221.402,380.651 223.402,380.984 225.5,380C 223.109,381.309 223.109,382.309 225.5,383C 225.374,384.974 225.208,387.141 225,389.5C 224.71,387.956 224.044,386.623 223,385.5C 221.69,387.952 220.524,390.452 219.5,393C 219.957,393.414 220.291,393.914 220.5,394.5C 219.019,395.48 217.685,396.647 216.5,398C 217.602,400.391 216.936,400.891 214.5,399.5C 213.148,400.518 212.148,401.851 211.5,403.5C 210.167,403.833 208.833,404.167 207.5,404.5C 207.167,404.333 206.833,404.167 206.5,404C 208.563,402.428 209.229,400.595 208.5,398.5C 206.155,401.012 203.488,403.178 200.5,405C 200.833,405.333 201.167,405.667 201.5,406C 200.833,408.333 200.167,410.667 199.5,413C 201.816,415.497 204.15,417.997 206.5,420.5C 207.197,418.615 208.197,418.282 209.5,419.5C 210.624,421.369 211.457,423.369 212,425.5C 213,424.5 214,423.5 215,422.5C 214.973,424.417 214.139,426.084 212.5,427.5C 214.432,434.038 215.265,434.038 215,427.5C 215.308,428.308 215.808,428.975 216.5,429.5C 217.609,428.41 218.609,428.41 219.5,429.5C 216.985,430.2 216.318,431.533 217.5,433.5C 216.014,436.146 214.348,438.646 212.5,441C 212.667,441.5 212.833,442 213,442.5C 213.308,441.692 213.808,441.025 214.5,440.5C 215.429,441.689 215.762,443.022 215.5,444.5C 216.833,444.5 218.167,444.5 219.5,444.5C 220.149,446.477 220.149,448.31 219.5,450C 221.145,451.032 221.478,452.199 220.5,453.5C 221.522,454.354 222.355,455.354 223,456.5C 223.604,454.314 224.77,454.148 226.5,456C 224.726,458.44 222.392,460.106 219.5,461C 220.46,462.419 221.293,463.919 222,465.5C 222.113,463.026 223.113,461.026 225,459.5C 225.536,461.567 225.036,463.401 223.5,465C 223.833,465.333 224.167,465.667 224.5,466C 220.833,467 220.5,468.667 223.5,471C 225.246,471.471 226.913,472.138 228.5,473C 227.579,474.756 226.412,474.923 225,473.5C 223.831,474.009 222.998,474.842 222.5,476C 223.717,477.648 224.55,479.481 225,481.5C 225.333,480.167 225.667,478.833 226,477.5C 226.5,478.667 227.333,479.5 228.5,480C 227.044,480.423 226.544,481.256 227,482.5C 228.117,482.665 229.284,482.998 230.5,483.5C 231.881,485.966 231.381,487.966 229,489.5C 228.65,493.619 229.817,497.286 232.5,500.5C 233.425,501.641 234.259,501.641 235,500.5C 236.009,502.025 236.509,503.692 236.5,505.5C 238.527,505.338 240.527,505.505 242.5,506C 241.402,508.498 241.568,510.998 243,513.5C 243.689,512.643 244.522,511.977 245.5,511.5C 246.624,512.914 247.624,514.414 248.5,516C 251.611,515.405 253.444,516.905 254,520.5C 254.5,468.834 254.667,417.168 254.5,365.5C 254.833,365.5 255.167,365.5 255.5,365.5C 255.169,391.672 255.502,417.672 256.5,443.5C 256.5,465.167 256.5,486.833 256.5,508.5C 255.673,513.651 255.173,518.984 255,524.5C 254.95,526.744 254.117,528.411 252.5,529.5C 246.727,527.112 241.393,523.945 236.5,520C 229.333,511.5 222.167,503 215,494.5C 214.209,493.255 213.709,491.922 213.5,490.5C 213.579,487.729 213.079,485.063 212,482.5C 210.122,479.967 208.289,477.467 206.5,475C 204.756,468.534 203.423,462.034 202.5,455.5C 204.078,454.934 205.412,453.934 206.5,452.5C 203.826,451.501 203.159,449.834 204.5,447.5C 202.984,444.469 201.484,441.469 200,438.5C 199.942,427.735 199.108,417.068 197.5,406.5C 195.336,406.279 193.67,405.279 192.5,403.5C 190.913,400.831 190.079,397.831 190,394.5C 189.295,378.147 189.628,361.814 191,345.5C 191.191,343.292 191.691,341.292 192.5,339.5C 191.593,347.818 191.427,356.151 192,364.5C 193.677,360.98 195.01,357.313 196,353.5C 196.5,352.333 197.333,351.5 198.5,351C 197.483,349.951 197.316,348.784 198,347.5C 198.667,348.833 199.333,348.833 200,347.5C 203.16,344.741 203.16,342.074 200,339.5C 199.667,341.5 199.333,343.5 199,345.5C 197.345,340.063 198.845,335.897 203.5,333C 201.122,332.026 201.456,331.359 204.5,331C 203.396,329.869 203.729,329.035 205.5,328.5C 206.935,330.401 208.602,330.734 210.5,329.5C 208.234,328.568 206.234,327.234 204.5,325.5C 205.5,324.833 206.5,324.167 207.5,323.5C 206.011,323.467 204.678,322.967 203.5,322C 204.102,320.096 203.602,318.263 202,316.5C 201.667,317.5 201.333,318.5 201,319.5C 200.506,317.866 200.34,316.199 200.5,314.5C 202.144,314.714 203.644,314.38 205,313.5C 205.79,315.79 207.124,316.123 209,314.5C 210.811,317.226 211.978,316.892 212.5,313.5C 212.518,311.627 212.018,311.294 211,312.5C 210.51,311.207 210.343,309.873 210.5,308.5C 212.199,308.66 213.866,308.494 215.5,308C 211.9,307.119 208.567,305.452 205.5,303C 208.475,300.996 211.808,299.996 215.5,300C 217.863,297.82 220.53,296.153 223.5,295C 221.527,292.985 219.86,293.152 218.5,295.5C 218.167,295 217.833,294.5 217.5,294C 218.161,291.536 218.661,289.036 219,286.5C 220.016,285.366 220.683,285.699 221,287.5C 222.044,286.377 222.71,285.044 223,283.5C 223.893,284.711 224.726,284.711 225.5,283.5C 224.691,281.929 224.357,280.262 224.5,278.5C 225.833,278.5 227.167,278.5 228.5,278.5C 228.5,279.5 228.5,280.5 228.5,281.5C 234.454,280.28 234.787,278.28 229.5,275.5C 230.5,273.833 231.833,272.5 233.5,271.5C 232.91,270.201 231.91,269.368 230.5,269C 231.787,267.59 232.954,266.09 234,264.5C 234.684,265.784 234.517,266.951 233.5,268C 235.554,267.417 237.554,267.917 239.5,269.5C 238.167,269.833 236.833,270.167 235.5,270.5C 236.85,271.95 238.516,272.617 240.5,272.5C 240.693,268.551 241.193,268.551 242,272.5C 245.88,271.709 248.38,273.376 249.5,277.5C 249.164,286.057 248.664,294.723 248,303.5C 246.833,304.667 245.667,305.833 244.5,307C 249.833,307.667 249.833,308.333 244.5,309C 245.386,310.217 246.386,311.551 247.5,313C 246.167,314.333 246.167,315.667 247.5,317C 245.234,318.857 245.568,320.524 248.5,322C 247.965,323.537 247.632,325.037 247.5,326.5C 249.019,328.556 249.853,330.89 250,333.5C 250.333,332.5 250.667,331.5 251,330.5C 251.49,339.17 250.657,347.67 248.5,356C 248.645,356.772 248.978,357.439 249.5,358C 248.244,358.417 247.577,359.25 247.5,360.5 Z"/></g>
<g><path style="opacity:1" fill="#ce5b13" d="M 222.5,241.5 C 221.617,245.582 219.451,248.916 216,251.5C 215.333,252.833 215.333,254.167 216,255.5C 219.622,252.813 222.455,249.48 224.5,245.5C 226.862,244.12 229.195,242.787 231.5,241.5C 227.091,246.569 223.091,251.902 219.5,257.5C 216.889,260.133 214.722,263.133 213,266.5C 208.85,275.964 204.517,285.298 200,294.5C 196.412,308.032 193.912,321.699 192.5,335.5C 192.83,329.132 192.496,322.798 191.5,316.5C 190.712,317.77 189.712,318.77 188.5,319.5C 191.916,289.877 203.249,263.877 222.5,241.5 Z"/></g>
<g><path style="opacity:1" fill="#7e7f7e" d="M 317.5,313.5 C 317.324,316.727 316.657,319.727 315.5,322.5C 315.215,319.171 315.882,316.171 317.5,313.5 Z"/></g>
<g><path style="opacity:1" fill="#0f191f" d="M 451.5,282.5 C 454.518,284.374 455.851,287.208 455.5,291C 455.919,293.981 454.919,296.314 452.5,298C 414.833,316.334 377.833,336.001 341.5,357C 338.975,357.896 336.808,357.396 335,355.5C 334.333,352.5 334.333,349.5 335,346.5C 336.833,344.667 338.667,342.833 340.5,341C 377.434,321.199 414.434,301.699 451.5,282.5 Z"/></g>
<g><path style="opacity:1" fill="#4b4b4b" d="M 114.5,320.5 C 114.066,325.668 113.4,330.668 112.5,335.5C 112.334,331.486 112.501,327.486 113,323.5C 113.232,322.263 113.732,321.263 114.5,320.5 Z"/></g>
<g><path style="opacity:1" fill="#0f191f" d="M 452.5,316.5 C 453.79,317.058 454.623,318.058 455,319.5C 455.667,323.167 455.667,326.833 455,330.5C 443.718,337.559 431.884,343.726 419.5,349C 393.36,363.906 367.026,378.573 340.5,393C 333.579,391.93 331.745,388.097 335,381.5C 336.5,380 338,378.5 339.5,377C 377.174,356.684 414.841,336.518 452.5,316.5 Z"/></g>
<g><path style="opacity:1" fill="#434343" d="M 177.5,345.5 C 176.733,355.815 176.399,366.148 176.5,376.5C 176.167,376.5 175.833,376.5 175.5,376.5C 175.334,367.827 175.5,359.16 176,350.5C 176.198,348.618 176.698,346.952 177.5,345.5 Z"/></g>
<g><path style="opacity:1" fill="#dc5412" d="M 192.5,335.5 C 192.5,336.833 192.5,338.167 192.5,339.5C 191.691,341.292 191.191,343.292 191,345.5C 189.628,361.814 189.295,378.147 190,394.5C 190.079,397.831 190.913,400.831 192.5,403.5C 193.058,411.49 193.558,419.49 194,427.5C 196.972,436.905 199.805,446.239 202.5,455.5C 203.423,462.034 204.756,468.534 206.5,475C 208.289,477.467 210.122,479.967 212,482.5C 213.079,485.063 213.579,487.729 213.5,490.5C 210.691,486.232 207.857,481.898 205,477.5C 190.755,443.716 183.922,408.383 184.5,371.5C 184.58,358.15 185.08,344.817 186,331.5C 186.839,327.363 187.673,323.363 188.5,319.5C 189.712,318.77 190.712,317.77 191.5,316.5C 192.496,322.798 192.83,329.132 192.5,335.5 Z"/></g>
<g><path style="opacity:1" fill="#888888" d="M 175.5,376.5 C 175.833,376.5 176.167,376.5 176.5,376.5C 176.7,385.506 177.034,394.506 177.5,403.5C 175.843,394.722 175.176,385.722 175.5,376.5 Z"/></g>
<g><path style="opacity:1" fill="#0f181f" d="M 449.5,352.5 C 451.766,352.141 453.599,352.808 455,354.5C 455.667,358.167 455.667,361.833 455,365.5C 417.055,386.221 379.221,407.054 341.5,428C 334.86,427.659 332.694,424.159 335,417.5C 336.5,416 338,414.5 339.5,413C 376.294,393.102 412.961,372.936 449.5,352.5 Z"/></g>
<g><path style="opacity:1" fill="#865633" d="M 253.5,218.5 C 254.209,217.596 255.209,217.263 256.5,217.5C 256.5,292.833 256.5,368.167 256.5,443.5C 255.502,417.672 255.169,391.672 255.5,365.5C 255.832,316.33 255.499,267.33 254.5,218.5C 254.167,218.5 253.833,218.5 253.5,218.5 Z"/></g>
<g><path style="opacity:1" fill="#fe7b18" d="M 247.5,360.5 C 250.85,361.378 251.183,362.878 248.5,365C 249.167,365.667 249.833,366.333 250.5,367C 248.765,368.182 247.765,369.849 247.5,372C 249.481,377.134 251.314,381.634 253,385.5C 253.171,376.99 253.671,368.657 254.5,360.5C 254.5,362.167 254.5,363.833 254.5,365.5C 254.667,417.168 254.5,468.834 254,520.5C 253.444,516.905 251.611,515.405 248.5,516C 247.624,514.414 246.624,512.914 245.5,511.5C 244.522,511.977 243.689,512.643 243,513.5C 241.568,510.998 241.402,508.498 242.5,506C 240.527,505.505 238.527,505.338 236.5,505.5C 236.509,503.692 236.009,502.025 235,500.5C 234.259,501.641 233.425,501.641 232.5,500.5C 229.817,497.286 228.65,493.619 229,489.5C 231.381,487.966 231.881,485.966 230.5,483.5C 229.284,482.998 228.117,482.665 227,482.5C 226.544,481.256 227.044,480.423 228.5,480C 227.333,479.5 226.5,478.667 226,477.5C 225.667,478.833 225.333,480.167 225,481.5C 224.55,479.481 223.717,477.648 222.5,476C 222.998,474.842 223.831,474.009 225,473.5C 226.412,474.923 227.579,474.756 228.5,473C 226.913,472.138 225.246,471.471 223.5,471C 220.5,468.667 220.833,467 224.5,466C 224.167,465.667 223.833,465.333 223.5,465C 225.036,463.401 225.536,461.567 225,459.5C 223.113,461.026 222.113,463.026 222,465.5C 221.293,463.919 220.46,462.419 219.5,461C 222.392,460.106 224.726,458.44 226.5,456C 224.77,454.148 223.604,454.314 223,456.5C 222.355,455.354 221.522,454.354 220.5,453.5C 221.478,452.199 221.145,451.032 219.5,450C 220.149,448.31 220.149,446.477 219.5,444.5C 218.167,444.5 216.833,444.5 215.5,444.5C 215.762,443.022 215.429,441.689 214.5,440.5C 213.808,441.025 213.308,441.692 213,442.5C 212.833,442 212.667,441.5 212.5,441C 214.348,438.646 216.014,436.146 217.5,433.5C 216.318,431.533 216.985,430.2 219.5,429.5C 218.609,428.41 217.609,428.41 216.5,429.5C 215.808,428.975 215.308,428.308 215,427.5C 215.265,434.038 214.432,434.038 212.5,427.5C 214.139,426.084 214.973,424.417 215,422.5C 214,423.5 213,424.5 212,425.5C 211.457,423.369 210.624,421.369 209.5,419.5C 208.197,418.282 207.197,418.615 206.5,420.5C 204.15,417.997 201.816,415.497 199.5,413C 200.167,410.667 200.833,408.333 201.5,406C 201.167,405.667 200.833,405.333 200.5,405C 203.488,403.178 206.155,401.012 208.5,398.5C 209.229,400.595 208.563,402.428 206.5,404C 206.833,404.167 207.167,404.333 207.5,404.5C 208.833,404.167 210.167,403.833 211.5,403.5C 212.148,401.851 213.148,400.518 214.5,399.5C 216.936,400.891 217.602,400.391 216.5,398C 217.685,396.647 219.019,395.48 220.5,394.5C 220.291,393.914 219.957,393.414 219.5,393C 220.524,390.452 221.69,387.952 223,385.5C 224.044,386.623 224.71,387.956 225,389.5C 225.208,387.141 225.374,384.974 225.5,383C 223.109,382.309 223.109,381.309 225.5,380C 223.402,380.984 221.402,380.651 219.5,379C 219.998,377.842 220.831,377.009 222,376.5C 228.714,379.242 229.214,378.075 223.5,373C 224.357,372.311 225.023,371.478 225.5,370.5C 224.559,370.511 223.892,370.011 223.5,369C 224.112,366.942 225.112,365.109 226.5,363.5C 225.68,361.889 224.346,361.222 222.5,361.5C 222.664,358.252 223.664,355.252 225.5,352.5C 226.768,353.428 228.101,353.595 229.5,353C 228.332,351.129 228.832,349.629 231,348.5C 231.345,344.287 232.178,340.121 233.5,336C 231.887,335.911 230.72,336.745 230,338.5C 229.837,336.324 229.004,334.491 227.5,333C 229.345,333.783 231.345,334.116 233.5,334C 232.5,333 231.5,332 230.5,331C 232.301,329.613 232.968,328.113 232.5,326.5C 233.72,326.887 234.387,327.72 234.5,329C 234.475,330.988 234.475,332.988 234.5,335C 235.5,335.5 236.5,336 237.5,336.5C 240.58,335.034 242.914,335.867 244.5,339C 244,339.5 243.5,340 243,340.5C 241.658,339.098 240.824,339.431 240.5,341.5C 241.219,343.728 242.552,345.561 244.5,347C 242.924,347.44 241.59,348.273 240.5,349.5C 239.686,351.766 239.186,354.1 239,356.5C 237.502,358.614 235.669,359.114 233.5,358C 235.167,359 236.833,360 238.5,361C 237.833,361.333 237.167,361.667 236.5,362C 237.981,362.98 239.315,364.147 240.5,365.5C 241.167,364.833 241.833,364.167 242.5,363.5C 243.711,364.274 243.711,365.107 242.5,366C 244.146,367.401 245.813,367.568 247.5,366.5C 246.429,364.675 247.096,363.508 249.5,363C 247.833,362.667 246.167,362.333 244.5,362C 245.737,361.768 246.737,361.268 247.5,360.5 Z"/></g>
<g><path style="opacity:1" fill="#0f171d" d="M 450.5,387.5 C 452.451,387.227 453.951,387.893 455,389.5C 455.667,392.833 455.667,396.167 455,399.5C 454.692,400.308 454.192,400.975 453.5,401.5C 418.386,419.556 383.719,438.39 349.5,458C 346.278,459.365 342.944,460.532 339.5,461.5C 337.813,461.24 336.313,460.573 335,459.5C 333.348,454.154 334.848,449.987 339.5,447C 376.664,427.302 413.664,407.469 450.5,387.5 Z"/></g>
<g><path style="opacity:1" fill="#b7b7b7" d="M 492.5,426.5 C 493.586,426.62 494.253,427.287 494.5,428.5C 487.544,450.076 477.711,470.076 465,488.5C 461.194,492.306 457.36,496.14 453.5,500C 439.958,508.608 425.624,515.274 410.5,520C 407.868,520.449 405.368,521.283 403,522.5C 402.5,522.167 402,521.833 401.5,521.5C 405.639,519.499 409.306,516.999 412.5,514C 429.804,495.237 443.47,474.071 453.5,450.5C 467.069,443.232 480.069,435.232 492.5,426.5 Z"/></g>
<g><path style="opacity:1" fill="#fe8e24" d="M 192.5,403.5 C 193.67,405.279 195.336,406.279 197.5,406.5C 199.108,417.068 199.942,427.735 200,438.5C 201.484,441.469 202.984,444.469 204.5,447.5C 203.159,449.834 203.826,451.501 206.5,452.5C 205.412,453.934 204.078,454.934 202.5,455.5C 199.805,446.239 196.972,436.905 194,427.5C 193.558,419.49 193.058,411.49 192.5,403.5 Z"/></g>
<g><path style="opacity:1" fill="#d6540f" d="M 384.5,527.5 C 381.287,527.81 378.287,527.477 375.5,526.5C 379.983,522.863 384.65,519.363 389.5,516C 395.432,510.507 400.766,504.674 405.5,498.5C 408.323,497.008 409.99,494.674 410.5,491.5C 418.254,478.994 425.754,466.327 433,453.5C 436.938,449.949 441.438,447.615 446.5,446.5C 442.915,455.677 438.748,464.677 434,473.5C 423.387,489.529 411.221,504.362 397.5,518C 393.137,521.176 388.804,524.343 384.5,527.5 Z"/></g>
<g><path style="opacity:1" fill="#b6b6b6" d="M 414.5,465.5 C 416.028,465.517 416.528,466.184 416,467.5C 400.96,487.546 384.794,506.713 367.5,525C 362.394,527.61 357.06,529.61 351.5,531C 340.959,533.395 330.626,535.562 320.5,537.5C 338.83,525.006 353.496,509.172 364.5,490C 381.146,481.509 397.812,473.343 414.5,465.5 Z"/></g>
<g><path style="opacity:1" fill="#bc8360" d="M 410.5,491.5 C 409.99,494.674 408.323,497.008 405.5,498.5C 406.786,495.883 408.453,493.55 410.5,491.5 Z"/></g>
<g><path style="opacity:1" fill="#a77252" d="M 256.5,508.5 C 256.666,514.509 256.499,520.509 256,526.5C 255.798,528.256 255.298,529.922 254.5,531.5C 253.478,531.145 252.811,530.478 252.5,529.5C 254.117,528.411 254.95,526.744 255,524.5C 255.173,518.984 255.673,513.651 256.5,508.5 Z"/></g>
<g><path style="opacity:1" fill="#857569" d="M 180.5,527.5 C 181.833,527.5 183.167,527.5 184.5,527.5C 187.083,528.092 187.083,528.758 184.5,529.5C 182.829,529.332 181.496,528.665 180.5,527.5 Z"/></g>
<g><path style="opacity:1" fill="#806b60" d="M 375.5,526.5 C 378.287,527.477 381.287,527.81 384.5,527.5C 380.649,528.809 376.649,528.809 372.5,527.5C 373.325,526.614 374.325,526.281 375.5,526.5 Z"/></g>
</svg>
