<?xml version="1.0" encoding="UTF-8"?>
<!DOCTYPE svg PUBLIC "-//W3C//DTD SVG 1.1//EN" "http://www.w3.org/Graphics/SVG/1.1/DTD/svg11.dtd">
<svg xmlns="http://www.w3.org/2000/svg" version="1.1" width="606px" height="593px" style="shape-rendering:geometricPrecision; text-rendering:geometricPrecision; image-rendering:optimizeQuality; fill-rule:evenodd; clip-rule:evenodd" xmlns:xlink="http://www.w3.org/1999/xlink">
<g><path style="opacity:1" fill="#fefefe" d="M -0.5,-0.5 C 89.8333,-0.5 180.167,-0.5 270.5,-0.5C 253.929,0.441035 238.929,5.94103 225.5,16C 215.896,24.6936 213.729,34.8603 219,46.5C 242.839,68.4754 255.006,95.8087 255.5,128.5C 244.579,125.379 233.579,122.379 222.5,119.5C 222.167,118.667 221.833,117.833 221.5,117C 231.181,94.7426 227.514,75.076 210.5,58C 197.58,49.9096 184.58,49.5763 171.5,57C 167.887,62.9379 165.887,69.4379 165.5,76.5C 160.84,74.5053 156.506,72.0053 152.5,69C 136.959,63.1157 122.459,64.949 109,74.5C 91.56,63.0889 74.06,62.9222 56.5,74C 39.2226,88.2776 34.7226,105.778 43,126.5C 46.2144,131.382 50.3811,135.215 55.5,138C 58.1667,138.667 60.8333,138.667 63.5,138C 64.1667,137 64.8333,136 65.5,135C 61.3333,128.833 57.1667,122.667 53,116.5C 49.7706,97.7277 57.2706,85.5611 75.5,80C 90.1161,77.9838 102.783,81.9838 113.5,92C 118.97,97.2912 123.97,102.958 128.5,109C 134.774,112.591 141.441,115.091 148.5,116.5C 161.211,115.138 173.711,112.804 186,109.5C 191.364,109.932 195.864,112.099 199.5,116C 199.18,117.653 198.18,118.653 196.5,119C 172.287,116.176 149.287,120.176 127.5,131C 120.167,136 112.833,141 105.5,146C 95.0518,156.539 85.0518,167.539 75.5,179C 59.7551,188.744 46.5884,201.244 36,216.5C 19.2755,240.988 8.60882,267.988 4,297.5C 1.99046,308.918 0.490461,320.252 -0.5,331.5C -0.5,220.833 -0.5,110.167 -0.5,-0.5 Z"/></g>
<g><path style="opacity:1" fill="#fefffe" d="M 272.5,-0.5 C 383.5,-0.5 494.5,-0.5 605.5,-0.5C 605.5,28.8333 605.5,58.1667 605.5,87.5C 602.546,88.4279 599.546,89.2612 596.5,90C 559.531,106.235 523.031,123.402 487,141.5C 486.5,118.169 486.333,94.8357 486.5,71.5C 478.913,72.7506 471.58,74.9172 464.5,78C 420.828,98.836 377.162,119.669 333.5,140.5C 332.353,140.182 331.519,139.516 331,138.5C 330.477,122.42 329.144,106.42 327,90.5C 319.563,65.7526 313.23,40.7526 308,15.5C 298.32,5.22443 286.487,-0.108899 272.5,-0.5 Z"/></g>
<g><path style="opacity:1" fill="#030202" d="M 270.5,-0.5 C 271.167,-0.5 271.833,-0.5 272.5,-0.5C 286.487,-0.108899 298.32,5.22443 308,15.5C 313.23,40.7526 319.563,65.7526 327,90.5C 329.144,106.42 330.477,122.42 331,138.5C 331.519,139.516 332.353,140.182 333.5,140.5C 377.162,119.669 420.828,98.836 464.5,78C 471.58,74.9172 478.913,72.7506 486.5,71.5C 486.333,94.8357 486.5,118.169 487,141.5C 523.031,123.402 559.531,106.235 596.5,90C 599.546,89.2612 602.546,88.4279 605.5,87.5C 605.5,89.5 605.5,91.5 605.5,93.5C 603.98,97.5245 602.146,101.525 600,105.5C 584.611,126.556 569.611,147.89 555,169.5C 546.511,184.475 539.677,200.142 534.5,216.5C 555.759,251.116 567.259,288.783 569,329.5C 572.595,390.127 557.928,445.793 525,496.5C 499.272,531.801 465.439,555.968 423.5,569C 411.926,571.269 400.259,571.935 388.5,571C 385.166,570.211 381.999,569.044 379,567.5C 358.203,582.543 334.87,590.21 309,590.5C 291.603,588.951 274.437,589.617 257.5,592.5C 252.833,592.5 248.167,592.5 243.5,592.5C 230.14,590.393 216.807,587.56 203.5,584C 194.98,580.244 187.313,575.244 180.5,569C 149.303,575.294 120.636,569.294 94.5,551C 46.462,515.224 16.6286,467.724 5,408.5C 2.31583,395.47 0.482501,382.47 -0.5,369.5C -0.5,356.833 -0.5,344.167 -0.5,331.5C 0.490461,320.252 1.99046,308.918 4,297.5C 8.60882,267.988 19.2755,240.988 36,216.5C 46.5884,201.244 59.7551,188.744 75.5,179C 85.0518,167.539 95.0518,156.539 105.5,146C 112.833,141 120.167,136 127.5,131C 149.287,120.176 172.287,116.176 196.5,119C 198.18,118.653 199.18,117.653 199.5,116C 195.864,112.099 191.364,109.932 186,109.5C 173.711,112.804 161.211,115.138 148.5,116.5C 141.441,115.091 134.774,112.591 128.5,109C 123.97,102.958 118.97,97.2912 113.5,92C 102.783,81.9838 90.1161,77.9838 75.5,80C 57.2706,85.5611 49.7706,97.7277 53,116.5C 57.1667,122.667 61.3333,128.833 65.5,135C 64.8333,136 64.1667,137 63.5,138C 60.8333,138.667 58.1667,138.667 55.5,138C 50.3811,135.215 46.2144,131.382 43,126.5C 34.7226,105.778 39.2226,88.2776 56.5,74C 74.06,62.9222 91.56,63.0889 109,74.5C 122.459,64.949 136.959,63.1157 152.5,69C 156.506,72.0053 160.84,74.5053 165.5,76.5C 165.887,69.4379 167.887,62.9379 171.5,57C 184.58,49.5763 197.58,49.9096 210.5,58C 227.514,75.076 231.181,94.7426 221.5,117C 221.833,117.833 222.167,118.667 222.5,119.5C 233.579,122.379 244.579,125.379 255.5,128.5C 255.006,95.8087 242.839,68.4754 219,46.5C 213.729,34.8603 215.896,24.6936 225.5,16C 238.929,5.94103 253.929,0.441035 270.5,-0.5 Z"/></g>
<g><path style="opacity:1" fill="#459f19" d="M 267.5,16.5 C 274.462,16.0594 281.129,17.2261 287.5,20C 292.062,22.9246 293.229,26.7579 291,31.5C 288.408,34.7621 285.241,37.2621 281.5,39C 272.609,42.3478 263.442,44.5145 254,45.5C 245.901,45.3687 239.235,42.3687 234,36.5C 233.143,33.4495 233.81,30.7828 236,28.5C 245.453,21.5144 255.953,17.5144 267.5,16.5 Z"/></g>
<g><path style="opacity:1" fill="#459e17" d="M 304.5,51.5 C 305.527,57.9148 307.527,63.9148 310.5,69.5C 310.41,72.1522 311.076,74.4855 312.5,76.5C 313.768,78.9052 314.435,81.5718 314.5,84.5C 316.289,99.1124 317.289,113.779 317.5,128.5C 312.824,135.323 306.49,140.157 298.5,143C 290.09,145.995 281.423,147.161 272.5,146.5C 272.724,140.261 272.057,134.261 270.5,128.5C 266.791,104.636 258.958,82.3023 247,61.5C 246.029,58.6956 246.862,56.6956 249.5,55.5C 259.86,57.3674 269.86,56.2007 279.5,52C 286.33,48.4194 292.997,44.5861 299.5,40.5C 301.448,44.0606 303.114,47.7272 304.5,51.5 Z"/></g>
<g><path style="opacity:1" fill="#27590e" d="M 304.5,51.5 C 307.473,57.0852 309.473,63.0852 310.5,69.5C 307.527,63.9148 305.527,57.9148 304.5,51.5 Z"/></g>
<g><path style="opacity:1" fill="#459c1a" d="M 183.5,64.5 C 194.843,63.5888 203.01,68.2555 208,78.5C 212.108,87.7554 212.441,97.0887 209,106.5C 189.397,98.9243 180.897,84.9243 183.5,64.5 Z"/></g>
<g><path style="opacity:1" fill="#25560e" d="M 310.5,69.5 C 311.924,71.5145 312.59,73.8478 312.5,76.5C 311.076,74.4855 310.41,72.1522 310.5,69.5 Z"/></g>
<g><path style="opacity:1" fill="#44991d" d="M 127.5,79.5 C 134.674,79.0117 141.674,79.845 148.5,82C 157.524,85.8385 165.857,90.6718 173.5,96.5C 166.287,97.9597 159.287,100.126 152.5,103C 150.833,103.667 149.167,103.667 147.5,103C 138.431,97.1019 130.431,89.9353 123.5,81.5C 124.949,80.8281 126.282,80.1614 127.5,79.5 Z"/></g>
<g><path style="opacity:1" fill="#fefefe" d="M 605.5,93.5 C 605.5,259.833 605.5,426.167 605.5,592.5C 489.5,592.5 373.5,592.5 257.5,592.5C 274.437,589.617 291.603,588.951 309,590.5C 334.87,590.21 358.203,582.543 379,567.5C 381.999,569.044 385.166,570.211 388.5,571C 400.259,571.935 411.926,571.269 423.5,569C 465.439,555.968 499.272,531.801 525,496.5C 557.928,445.793 572.595,390.127 569,329.5C 567.259,288.783 555.759,251.116 534.5,216.5C 539.677,200.142 546.511,184.475 555,169.5C 569.611,147.89 584.611,126.556 600,105.5C 602.146,101.525 603.98,97.5245 605.5,93.5 Z"/></g>
<g><path style="opacity:1" fill="#f6f8f5" d="M 467.5,94.5 C 468.5,94.5 469.5,94.5 470.5,94.5C 470.667,112.503 470.5,130.503 470,148.5C 430.58,170.46 391.08,192.294 351.5,214C 336.451,241.262 321.785,268.762 307.5,296.5C 306.675,297.386 305.675,297.719 304.5,297.5C 305.188,269.507 305.688,241.507 306,213.5C 352.579,189.461 399.079,165.294 445.5,141C 446.798,136.882 446.798,132.715 445.5,128.5C 394.342,155.245 343.342,182.245 292.5,209.5C 290.981,324.499 290.648,439.499 291.5,554.5C 313.5,544.5 335.5,534.5 357.5,524.5C 357.475,527.038 357.641,529.705 358,532.5C 351.35,537.983 345.183,543.983 339.5,550.5C 319.386,566.483 296.553,573.483 271,571.5C 270.333,444.833 270.333,318.167 271,191.5C 336.638,159.264 402.138,126.931 467.5,94.5 Z"/></g>
<g><path style="opacity:1" fill="#327211" d="M 314.5,84.5 C 318.364,98.991 319.364,113.658 317.5,128.5C 317.289,113.779 316.289,99.1124 314.5,84.5 Z"/></g>
<g><path style="opacity:1" fill="#10151a" d="M 91.5,106.5 C 92.2071,109.786 92.5405,113.119 92.5,116.5C 90.9967,123.984 86.6634,126.651 79.5,124.5C 76.1195,122.12 73.4528,119.12 71.5,115.5C 71.8333,112.833 72.1667,110.167 72.5,107.5C 74.3413,103.65 77.508,101.65 82,101.5C 84.2527,101.631 86.4194,102.131 88.5,103C 89.1634,104.518 90.1634,105.685 91.5,106.5 Z"/></g>
<g><path style="opacity:1" fill="#7c7e7f" d="M 72.5,107.5 C 72.1667,110.167 71.8333,112.833 71.5,115.5C 70.254,112.707 70.5873,110.04 72.5,107.5 Z"/></g>
<g><path style="opacity:1" fill="#777b7e" d="M 91.5,106.5 C 92.9723,108.117 93.639,110.117 93.5,112.5C 93.4892,114.045 93.1558,115.378 92.5,116.5C 92.5405,113.119 92.2071,109.786 91.5,106.5 Z"/></g>
<g><path style="opacity:1" fill="#6a6f71" d="M 71.5,115.5 C 73.4528,119.12 76.1195,122.12 79.5,124.5C 74.7527,123.416 72.086,120.416 71.5,115.5 Z"/></g>
<g><path style="opacity:1" fill="#f6f8f5" d="M 381.5,492.5 C 373.353,495.739 365.686,499.739 358.5,504.5C 355.227,507.144 351.56,509.311 347.5,511C 340.101,514.075 332.768,517.242 325.5,520.5C 324.417,520.539 323.417,520.873 322.5,521.5C 321.833,503.004 321.167,484.671 320.5,466.5C 319.301,420.822 319.301,375.156 320.5,329.5C 321.622,322.474 323.289,315.474 325.5,308.5C 326.895,301.885 330.228,296.385 335.5,292C 354.453,277.346 375.453,273.346 398.5,280C 402.163,281.708 405.996,282.874 410,283.5C 414.265,282.98 416.431,280.646 416.5,276.5C 414.367,269.185 410.367,263.018 404.5,258C 403.906,257.536 403.239,257.369 402.5,257.5C 399.944,256.457 397.777,254.79 396,252.5C 388.031,241.204 379.364,230.538 370,220.5C 369.493,219.004 369.993,217.837 371.5,217C 380.652,214.091 389.318,210.091 397.5,205C 434.792,187.689 472.126,170.355 509.5,153C 528.639,142.438 547.639,132.604 566.5,123.5C 553.319,141.513 541.152,160.179 530,179.5C 516.364,209.378 508.364,240.712 506,273.5C 505.347,324.554 505.347,375.554 506,426.5C 465.001,449.417 423.501,471.417 381.5,492.5 Z"/></g>
<g><path style="opacity:1" fill="#ce4d07" d="M 162.5,132.5 C 174.349,132.516 186.349,134.016 198.5,137C 208.922,141.378 218.589,147.044 227.5,154C 223.737,154.92 220.237,156.42 217,158.5C 206.651,154.722 195.985,151.722 185,149.5C 171.294,150.794 157.794,150.794 144.5,149.5C 142.452,150.77 140.452,151.103 138.5,150.5C 136.452,151.77 134.452,152.103 132.5,151.5C 128.875,152.13 125.375,153.13 122,154.5C 119.945,154.152 117.945,154.819 116,156.5C 116.027,154.583 116.861,152.916 118.5,151.5C 128.996,143.821 140.162,138.155 152,134.5C 154.333,134.5 156.667,134.5 159,134.5C 160.302,133.915 161.469,133.249 162.5,132.5 Z"/></g>
<g><path style="opacity:1" fill="#1c400c" d="M 270.5,128.5 C 272.057,134.261 272.724,140.261 272.5,146.5C 271.318,140.699 270.652,134.699 270.5,128.5 Z"/></g>
<g><path style="opacity:1" fill="#cf4d07" d="M 157.5,168.5 C 172.264,168.033 186.93,168.533 201.5,170C 167.631,174.132 135.631,184.132 105.5,200C 72.9888,224.503 52.1555,256.669 43,296.5C 32.2364,347.375 33.2364,398.041 46,448.5C 49.5421,457.96 52.3754,467.626 54.5,477.5C 54.2811,478.938 53.7811,480.271 53,481.5C 42.3064,466.447 33.973,450.114 28,432.5C 12.0622,375.104 13.3955,318.104 32,261.5C 56.0858,206.584 97.9192,175.584 157.5,168.5 Z"/></g>
<g><path style="opacity:1" fill="#b7b7b7" d="M 85.5,323.5 C 84.3991,331.65 83.7324,339.983 83.5,348.5C 80.8176,392.343 85.651,435.343 98,477.5C 108.118,504.415 121.284,529.415 137.5,552.5C 116.749,545.344 98.582,533.677 83,517.5C 76.7771,507.849 71.1104,497.849 66,487.5C 58.4991,465.993 52.8324,443.993 49,421.5C 48.2786,414.177 47.7786,406.844 47.5,399.5C 47.3002,377.487 47.6336,355.487 48.5,333.5C 49.9535,324.199 51.4535,314.866 53,305.5C 55.9711,296.965 58.3044,288.299 60,279.5C 64.3275,269.565 68.6608,259.565 73,249.5C 78.6535,240.199 84.3202,230.866 90,221.5C 98.0699,213.465 106.737,206.131 116,199.5C 116.414,199.957 116.914,200.291 117.5,200.5C 121.915,197.424 126.582,194.757 131.5,192.5C 138.98,190.252 146.313,187.752 153.5,185C 164.876,182.829 176.21,180.495 187.5,178C 208.34,176.71 208.34,178.543 187.5,183.5C 169.947,190.176 153.614,199.009 138.5,210C 120.85,225.125 108.017,243.625 100,265.5C 96.5796,274.629 93.5796,283.963 91,293.5C 88.7297,303.481 86.8964,313.481 85.5,323.5 Z"/></g>
<g><path style="opacity:1" fill="#fe7d17" d="M 168.5,560.5 C 168.5,561.167 168.167,561.5 167.5,561.5C 161.133,560.067 155.299,557.401 150,553.5C 138.75,536.001 127.75,518.335 117,500.5C 89.3486,435.617 82.6819,368.617 97,299.5C 102.421,272.851 113.755,249.184 131,228.5C 157.519,200.83 190.019,187.33 228.5,188C 166.486,205.684 128.986,246.184 116,309.5C 100.625,388.499 111.292,463.832 148,535.5C 153.896,544.639 160.729,552.973 168.5,560.5 Z"/></g>
<g><path style="opacity:1" fill="#b7b7b7" d="M 158.5,388.5 C 158.213,398.051 158.88,407.384 160.5,416.5C 166.399,476.464 190.732,527.63 233.5,570C 237.199,573.361 241.199,576.361 245.5,579C 243.155,579.17 240.821,578.837 238.5,578C 220.758,571.369 202.758,565.369 184.5,560C 175.809,555.645 168.643,549.479 163,541.5C 145.711,516.652 134.044,489.319 128,459.5C 124.451,440.209 121.118,420.875 118,401.5C 112.313,350.949 120.647,302.949 143,257.5C 147.58,251.34 151.914,245.007 156,238.5C 166.349,229.154 177.015,220.154 188,211.5C 188.414,211.957 188.914,212.291 189.5,212.5C 192.975,210.192 196.308,207.692 199.5,205C 207.654,203.206 215.654,200.04 223.5,195.5C 224.167,195.833 224.833,196.167 225.5,196.5C 228.986,195.828 232.153,194.494 235,192.5C 235.167,193 235.333,193.5 235.5,194C 226.049,203.451 216.549,212.951 207,222.5C 184.687,247.457 170.02,276.457 163,309.5C 160.223,335.769 158.723,362.102 158.5,388.5 Z"/></g>
<g><path style="opacity:1" fill="#bc5710" d="M 250.5,200.5 C 250.5,202.167 250.5,203.833 250.5,205.5C 248.33,206.838 246.664,208.672 245.5,211C 236.37,216.555 228.036,223.055 220.5,230.5C 218.688,230.771 217.022,231.438 215.5,232.5C 211.932,237.495 208.099,242.162 204,246.5C 203.125,249.628 201.958,252.628 200.5,255.5C 200.167,255.333 199.833,255.167 199.5,255C 201.16,252.367 201.66,249.534 201,246.5C 199.258,249.213 197.091,251.546 194.5,253.5C 207.276,229.727 225.943,212.06 250.5,200.5 Z"/></g>
<g><path style="opacity:1" fill="#275b0d" d="M 292.5,219.5 C 294.465,219.948 294.798,220.948 293.5,222.5C 292.614,221.675 292.281,220.675 292.5,219.5 Z"/></g>
<g><path style="opacity:1" fill="#fc8e25" d="M 250.5,205.5 C 250.5,223.5 250.5,241.5 250.5,259.5C 249.681,262.305 249.181,265.305 249,268.5C 247.715,260.997 247.215,253.497 247.5,246C 247.528,242.06 246.362,238.56 244,235.5C 243.358,231.509 242.858,227.509 242.5,223.5C 240.143,223.337 237.81,223.503 235.5,224C 230.997,229.35 226.997,235.017 223.5,241C 221.481,241.45 219.648,242.283 218,243.5C 217,243.167 216,242.833 215,242.5C 213.767,245.734 211.767,248.401 209,250.5C 204.792,258.939 200.625,267.106 196.5,275C 196.833,275.333 197.167,275.667 197.5,276C 196.539,278.576 195.039,280.743 193,282.5C 192.849,285.119 192.015,287.453 190.5,289.5C 190.709,290.086 191.043,290.586 191.5,291C 190.376,291.249 189.376,291.749 188.5,292.5C 187.972,294.336 187.306,296.003 186.5,297.5C 187.216,288.179 190.383,279.846 196,272.5C 197.33,268.042 198.83,263.708 200.5,259.5C 206.907,249.697 213.574,240.03 220.5,230.5C 228.036,223.055 236.37,216.555 245.5,211C 246.664,208.672 248.33,206.838 250.5,205.5 Z"/></g>
<g><path style="opacity:1" fill="#f5f7f4" d="M 359.5,231.5 C 364.406,234.898 368.906,238.898 373,243.5C 378.883,250.382 384.383,257.548 389.5,265C 371.362,266.45 353.695,270.283 336.5,276.5C 336.678,272.785 337.845,269.119 340,265.5C 347.802,254.895 354.302,243.562 359.5,231.5 Z"/></g>
<g><path style="opacity:1" fill="#fe851d" d="M 250.5,259.5 C 250.5,295.167 250.5,330.833 250.5,366.5C 249.778,366.918 249.278,367.584 249,368.5C 247.269,363.885 247.102,359.218 248.5,354.5C 247.956,346.791 247.123,339.124 246,331.5C 245.781,332.938 245.281,334.271 244.5,335.5C 243.253,333.994 243.253,332.494 244.5,331C 242.626,328.772 241.792,326.272 242,323.5C 242.906,326.121 243.406,325.954 243.5,323C 242.73,320.931 241.397,319.265 239.5,318C 240.167,317.333 240.833,316.667 241.5,316C 240.167,314.333 240.167,312.667 241.5,311C 240.692,310.692 240.025,310.192 239.5,309.5C 240.729,308.719 242.062,308.219 243.5,308C 236.927,307.472 236.927,306.638 243.5,305.5C 241.922,304.702 240.256,304.202 238.5,304C 239.634,302.984 239.301,302.317 237.5,302C 238.833,301.667 240.167,301.333 241.5,301C 241.043,300.586 240.709,300.086 240.5,299.5C 241.806,298.088 242.64,296.421 243,294.5C 243.742,288.801 243.575,283.134 242.5,277.5C 243.969,274.278 244.469,270.944 244,267.5C 242.333,266.167 240.667,264.833 239,263.5C 238.026,265.878 237.359,265.544 237,262.5C 236.667,263.167 236.333,263.833 236,264.5C 234.956,263.377 234.29,262.044 234,260.5C 234.285,266.184 232.785,266.851 229.5,262.5C 227.471,263.629 227.137,263.129 228.5,261C 233.713,261.243 233.713,260.409 228.5,258.5C 226.786,259.609 226.119,258.942 226.5,256.5C 229.388,256.78 230.888,255.447 231,252.5C 231.333,252.833 231.667,253.167 232,253.5C 232.667,251.167 232.667,248.833 232,246.5C 230.68,249.139 229.347,251.806 228,254.5C 227.333,255.833 226.667,255.833 226,254.5C 224.833,256.167 223.667,257.833 222.5,259.5C 222.846,260.696 223.346,260.696 224,259.5C 224.982,260.759 225.315,262.092 225,263.5C 218.295,267.633 218.462,269.633 225.5,269.5C 225.349,273.314 223.349,274.981 219.5,274.5C 219.333,270.05 217.666,269.883 214.5,274C 216.007,274.837 216.507,276.004 216,277.5C 213.316,278.699 211.149,281.033 209.5,284.5C 208.749,283.624 208.249,282.624 208,281.5C 207.73,284.224 207.23,286.891 206.5,289.5C 207.651,290.731 208.817,290.731 210,289.5C 211.701,291.024 211.201,292.024 208.5,292.5C 207.614,293.325 207.281,294.325 207.5,295.5C 202.521,295.698 197.855,296.864 193.5,299C 194.5,301.091 193.833,302.757 191.5,304C 193.194,305.728 194.361,305.228 195,302.5C 195.692,303.025 196.192,303.692 196.5,304.5C 195.273,305.59 194.44,306.924 194,308.5C 192.387,307.378 191.22,307.878 190.5,310C 191.449,310.617 192.282,310.451 193,309.5C 193.667,312.167 194.333,312.167 195,309.5C 195.75,310.126 196.584,310.626 197.5,311C 195.667,312.833 193.833,314.667 192,316.5C 191.667,316.167 191.333,315.833 191,315.5C 190.333,316.833 190.333,318.167 191,319.5C 191.654,318.304 192.154,318.304 192.5,319.5C 191.607,322.084 191.274,324.751 191.5,327.5C 190.325,327.281 189.325,327.614 188.5,328.5C 189.833,329.167 191.167,329.833 192.5,330.5C 191.38,332.596 189.88,332.93 188,331.5C 187.833,331.833 187.667,332.167 187.5,332.5C 191.311,333.738 191.311,334.404 187.5,334.5C 187.494,337.518 186.494,340.184 184.5,342.5C 185.189,344.444 185.689,346.444 186,348.5C 186.333,346.167 186.667,343.833 187,341.5C 187.585,343.129 188.419,344.629 189.5,346C 188.394,348.28 187.061,350.447 185.5,352.5C 184.604,351.494 183.938,351.494 183.5,352.5C 184.982,354.71 184.482,356.376 182,357.5C 180.364,362.314 179.197,366.98 178.5,371.5C 177.502,362.525 177.168,353.525 177.5,344.5C 177.68,328.026 180.68,312.359 186.5,297.5C 187.306,296.003 187.972,294.336 188.5,292.5C 189.376,291.749 190.376,291.249 191.5,291C 191.043,290.586 190.709,290.086 190.5,289.5C 192.015,287.453 192.849,285.119 193,282.5C 195.039,280.743 196.539,278.576 197.5,276C 197.167,275.667 196.833,275.333 196.5,275C 200.625,267.106 204.792,258.939 209,250.5C 211.767,248.401 213.767,245.734 215,242.5C 216,242.833 217,243.167 218,243.5C 219.648,242.283 221.481,241.45 223.5,241C 226.997,235.017 230.997,229.35 235.5,224C 237.81,223.503 240.143,223.337 242.5,223.5C 242.858,227.509 243.358,231.509 244,235.5C 246.362,238.56 247.528,242.06 247.5,246C 247.215,253.497 247.715,260.997 249,268.5C 249.181,265.305 249.681,262.305 250.5,259.5 Z"/></g>
<g><path style="opacity:1" fill="#fe7f1a" d="M 250.5,366.5 C 250.5,405.833 250.5,445.167 250.5,484.5C 246.463,483.962 244.129,481.628 243.5,477.5C 244.978,477.762 246.311,477.429 247.5,476.5C 245.577,475.692 243.577,475.192 241.5,475C 244.001,473.582 243.668,472.582 240.5,472C 242.473,471.505 244.473,471.338 246.5,471.5C 245.993,466.777 245.16,462.111 244,457.5C 243.667,457.833 243.333,458.167 243,458.5C 242.5,457.333 241.667,456.5 240.5,456C 241.376,451.167 241.376,446.5 240.5,442C 237.331,441.136 237.665,439.803 241.5,438C 239.208,436.71 237.208,435.043 235.5,433C 236.767,431.204 236.767,429.371 235.5,427.5C 235.846,426.304 236.346,426.304 237,427.5C 237.333,429.167 237.667,430.833 238,432.5C 238.236,430.236 238.736,428.069 239.5,426C 237.009,425.374 237.009,424.541 239.5,423.5C 232.927,422.362 232.927,421.528 239.5,421C 237.833,420.667 236.167,420.333 234.5,420C 235.641,419.259 235.641,418.425 234.5,417.5C 235.995,417.522 237.662,417.189 239.5,416.5C 238.22,414.298 238.22,412.132 239.5,410C 239.167,409.833 238.833,409.667 238.5,409.5C 237.692,411.423 237.192,413.423 237,415.5C 236.571,412.512 235.405,409.845 233.5,407.5C 232.702,409.078 232.202,410.744 232,412.5C 231,410.5 230,408.5 229,406.5C 228.333,407.167 227.667,407.833 227,408.5C 225.352,407.283 223.519,406.45 221.5,406C 220.277,400.171 219.11,400.338 218,406.5C 216.144,411.734 217.978,414.401 223.5,414.5C 224.187,412.726 225.02,411.059 226,409.5C 225.502,411.527 225.669,413.527 226.5,415.5C 227.736,416.246 229.07,416.579 230.5,416.5C 230.719,417.675 230.386,418.675 229.5,419.5C 226.898,418.253 224.398,416.919 222,415.5C 221.798,417.256 221.298,418.922 220.5,420.5C 220.88,418.54 220.38,416.54 219,414.5C 218.104,417.14 216.604,419.307 214.5,421C 216.604,421.489 216.938,422.655 215.5,424.5C 217.157,426.27 217.99,428.27 218,430.5C 217.333,429.833 216.667,429.167 216,428.5C 215.64,430.421 214.806,432.088 213.5,433.5C 210.381,428.965 206.548,428.298 202,431.5C 202.195,429.874 202.195,428.207 202,426.5C 201.228,427.849 200.061,428.682 198.5,429C 198.957,429.414 199.291,429.914 199.5,430.5C 198.36,432.473 197.027,434.307 195.5,436C 196.742,436.311 197.742,435.811 198.5,434.5C 198.381,437.258 199.048,439.592 200.5,441.5C 201.814,440.687 202.981,439.687 204,438.5C 203.765,441.117 202.932,443.617 201.5,446C 203.004,448.696 204.338,451.529 205.5,454.5C 202.134,456.683 200.967,459.683 202,463.5C 203,458.167 204,458.167 205,463.5C 205.333,462.167 205.667,460.833 206,459.5C 207.234,462.42 208.234,465.42 209,468.5C 209.556,466.405 210.056,466.238 210.5,468C 210.167,469 209.833,470 209.5,471C 210.384,472.098 211.384,472.598 212.5,472.5C 211.833,473.5 211.167,474.5 210.5,475.5C 215.76,478.851 215.426,481.684 209.5,484C 210.46,485.419 211.293,486.919 212,488.5C 212.47,486.226 213.47,484.226 215,482.5C 215.536,484.567 215.036,486.401 213.5,488C 216.131,489.691 215.797,490.858 212.5,491.5C 213.833,491.833 215.167,492.167 216.5,492.5C 216.192,493.308 215.692,493.975 215,494.5C 211.975,493.209 211.641,493.876 214,496.5C 215.902,495.614 217.735,495.947 219.5,497.5C 218.349,498.731 217.183,498.731 216,497.5C 214.325,498.595 213.158,500.095 212.5,502C 214.055,503.583 215.222,505.416 216,507.5C 215.91,503.461 217.077,502.794 219.5,505.5C 217.615,506.197 217.282,507.197 218.5,508.5C 223.15,509.266 224.65,511.932 223,516.5C 222.667,516.167 222.333,515.833 222,515.5C 221.5,516.667 220.667,517.5 219.5,518C 220,518.5 220.5,519 221,519.5C 221.667,518.167 222.333,518.167 223,519.5C 223.333,518.833 223.667,518.167 224,517.5C 224.111,522.379 225.278,522.712 227.5,518.5C 225.95,514.828 226.45,514.161 229,516.5C 229.265,518.163 228.765,519.663 227.5,521C 229.531,521.632 231.198,522.799 232.5,524.5C 231.282,524.109 230.448,524.776 230,526.5C 228.901,523.956 227.735,523.956 226.5,526.5C 230.287,528.177 233.12,527.177 235,523.5C 235.667,524.833 236.333,524.833 237,523.5C 237.333,526.167 237.667,528.833 238,531.5C 238.304,529.559 239.137,527.893 240.5,526.5C 237.922,526.323 237.922,525.157 240.5,523C 239.833,522.667 239.167,522.333 238.5,522C 240.061,521.682 241.228,520.849 242,519.5C 242.333,519.833 242.667,520.167 243,520.5C 245.568,513.545 244.068,507.212 238.5,501.5C 240.386,500.07 242.053,498.403 243.5,496.5C 244.689,495.571 246.022,495.238 247.5,495.5C 247.5,492.5 247.5,489.5 247.5,486.5C 248.5,486.5 249.5,486.5 250.5,486.5C 250.5,508.5 250.5,530.5 250.5,552.5C 249.304,550.71 247.971,549.043 246.5,547.5C 245.5,548.833 244.5,548.833 243.5,547.5C 242.376,546.086 241.376,544.586 240.5,543C 238.837,542.735 237.337,543.235 236,544.5C 235.383,543.551 235.549,542.718 236.5,542C 235.643,541.311 234.977,540.478 234.5,539.5C 235.64,537.922 236.14,536.256 236,534.5C 233.928,534.258 231.761,534.591 229.5,535.5C 228.248,532.248 225.915,529.914 222.5,528.5C 222.833,527.833 223.167,527.167 223.5,526.5C 220.466,521.618 217.633,517.285 215,513.5C 214.667,514.167 214.333,514.833 214,515.5C 213.667,513.833 213.333,512.167 213,510.5C 212.667,511.5 212.333,512.5 212,513.5C 212.037,509.841 210.871,506.674 208.5,504C 209.517,502.951 209.684,501.784 209,500.5C 208.667,501.167 208.333,501.833 208,502.5C 207.167,501.5 206.333,500.5 205.5,499.5C 204.808,500.025 204.308,500.692 204,501.5C 202.007,496.177 200.007,490.844 198,485.5C 198.086,489.047 196.92,492.047 194.5,494.5C 197.26,499.774 199.26,505.44 200.5,511.5C 204.311,512.454 205.311,514.787 203.5,518.5C 202.735,517.388 201.735,516.721 200.5,516.5C 198.787,513.706 197.454,510.706 196.5,507.5C 193.904,497.949 191.57,488.282 189.5,478.5C 191.946,479.392 192.612,480.892 191.5,483C 193.464,483.624 195.131,483.124 196.5,481.5C 195.975,480.808 195.308,480.308 194.5,480C 196.18,479.653 197.18,478.653 197.5,477C 195.687,474.394 194.353,471.561 193.5,468.5C 193.826,465.831 194.826,464.331 196.5,464C 195.66,462.829 194.827,461.662 194,460.5C 192.16,461.833 191.66,461.666 192.5,460C 191.732,457.631 190.565,455.465 189,453.5C 188.786,448.115 188.286,442.781 187.5,437.5C 187.987,436.554 188.32,435.554 188.5,434.5C 187.214,428.98 185.548,423.647 183.5,418.5C 183.833,417.833 184.167,417.167 184.5,416.5C 181.079,413.4 179.079,409.566 178.5,405C 179.593,402.4 179.593,399.734 178.5,397C 178.844,395.635 179.511,394.468 180.5,393.5C 179.471,393.704 178.471,393.204 177.5,392C 179.182,389.392 179.848,386.725 179.5,384C 178.207,383.51 176.873,383.343 175.5,383.5C 175.5,389.5 175.5,395.5 175.5,401.5C 173.921,382.433 174.588,363.433 177.5,344.5C 177.168,353.525 177.502,362.525 178.5,371.5C 179.197,366.98 180.364,362.314 182,357.5C 184.482,356.376 184.982,354.71 183.5,352.5C 183.938,351.494 184.604,351.494 185.5,352.5C 187.061,350.447 188.394,348.28 189.5,346C 188.419,344.629 187.585,343.129 187,341.5C 186.667,343.833 186.333,346.167 186,348.5C 185.689,346.444 185.189,344.444 184.5,342.5C 186.494,340.184 187.494,337.518 187.5,334.5C 191.311,334.404 191.311,333.738 187.5,332.5C 187.667,332.167 187.833,331.833 188,331.5C 189.88,332.93 191.38,332.596 192.5,330.5C 191.167,329.833 189.833,329.167 188.5,328.5C 189.325,327.614 190.325,327.281 191.5,327.5C 191.274,324.751 191.607,322.084 192.5,319.5C 192.154,318.304 191.654,318.304 191,319.5C 190.333,318.167 190.333,316.833 191,315.5C 191.333,315.833 191.667,316.167 192,316.5C 193.833,314.667 195.667,312.833 197.5,311C 196.584,310.626 195.75,310.126 195,309.5C 194.333,312.167 193.667,312.167 193,309.5C 192.282,310.451 191.449,310.617 190.5,310C 191.22,307.878 192.387,307.378 194,308.5C 194.44,306.924 195.273,305.59 196.5,304.5C 196.192,303.692 195.692,303.025 195,302.5C 194.361,305.228 193.194,305.728 191.5,304C 193.833,302.757 194.5,301.091 193.5,299C 197.855,296.864 202.521,295.698 207.5,295.5C 207.281,294.325 207.614,293.325 208.5,292.5C 211.201,292.024 211.701,291.024 210,289.5C 208.817,290.731 207.651,290.731 206.5,289.5C 207.23,286.891 207.73,284.224 208,281.5C 208.249,282.624 208.749,283.624 209.5,284.5C 211.149,281.033 213.316,278.699 216,277.5C 216.507,276.004 216.007,274.837 214.5,274C 217.666,269.883 219.333,270.05 219.5,274.5C 223.349,274.981 225.349,273.314 225.5,269.5C 218.462,269.633 218.295,267.633 225,263.5C 225.315,262.092 224.982,260.759 224,259.5C 223.346,260.696 222.846,260.696 222.5,259.5C 223.667,257.833 224.833,256.167 226,254.5C 226.667,255.833 227.333,255.833 228,254.5C 229.347,251.806 230.68,249.139 232,246.5C 232.667,248.833 232.667,251.167 232,253.5C 231.667,253.167 231.333,252.833 231,252.5C 230.888,255.447 229.388,256.78 226.5,256.5C 226.119,258.942 226.786,259.609 228.5,258.5C 233.713,260.409 233.713,261.243 228.5,261C 227.137,263.129 227.471,263.629 229.5,262.5C 232.785,266.851 234.285,266.184 234,260.5C 234.29,262.044 234.956,263.377 236,264.5C 236.333,263.833 236.667,263.167 237,262.5C 237.359,265.544 238.026,265.878 239,263.5C 240.667,264.833 242.333,266.167 244,267.5C 244.469,270.944 243.969,274.278 242.5,277.5C 243.575,283.134 243.742,288.801 243,294.5C 242.64,296.421 241.806,298.088 240.5,299.5C 240.709,300.086 241.043,300.586 241.5,301C 240.167,301.333 238.833,301.667 237.5,302C 239.301,302.317 239.634,302.984 238.5,304C 240.256,304.202 241.922,304.702 243.5,305.5C 236.927,306.638 236.927,307.472 243.5,308C 242.062,308.219 240.729,308.719 239.5,309.5C 240.025,310.192 240.692,310.692 241.5,311C 240.167,312.667 240.167,314.333 241.5,316C 240.833,316.667 240.167,317.333 239.5,318C 241.397,319.265 242.73,320.931 243.5,323C 243.406,325.954 242.906,326.121 242,323.5C 241.792,326.272 242.626,328.772 244.5,331C 243.253,332.494 243.253,333.994 244.5,335.5C 245.281,334.271 245.781,332.938 246,331.5C 247.123,339.124 247.956,346.791 248.5,354.5C 247.102,359.218 247.269,363.885 249,368.5C 249.278,367.584 249.778,366.918 250.5,366.5 Z"/></g>
<g><path style="opacity:1" fill="#f87615" d="M 540.5,423.5 C 538.576,423.711 538.243,424.377 539.5,425.5C 538.65,430.232 537.484,434.899 536,439.5C 535.632,440.91 534.799,441.91 533.5,442.5C 528.028,438.222 525.194,432.556 525,425.5C 524.745,398.658 525.245,371.825 526.5,345C 525.878,325.165 525.212,305.331 524.5,285.5C 524.589,273.841 525.922,262.341 528.5,251C 529.424,249.189 530.257,249.355 531,251.5C 531.249,250.376 531.749,249.376 532.5,248.5C 543.164,271.642 549.331,295.975 551,321.5C 552.853,349.728 551.187,377.728 546,405.5C 544.66,411.684 542.827,417.684 540.5,423.5 Z"/></g>
<g><path style="opacity:1" fill="#aaacaa" d="M 402.5,257.5 C 403.239,257.369 403.906,257.536 404.5,258C 410.367,263.018 414.367,269.185 416.5,276.5C 412.637,269.628 407.97,263.295 402.5,257.5 Z"/></g>
<g><path style="opacity:1" fill="#c65811" d="M 220.5,230.5 C 213.574,240.03 206.907,249.697 200.5,259.5C 196.276,262.39 194.276,266.39 194.5,271.5C 193.5,271.5 192.5,271.5 191.5,271.5C 189.977,277.571 188.144,283.571 186,289.5C 183.973,292.221 182.473,295.221 181.5,298.5C 180.033,298.723 178.533,299.056 177,299.5C 176.814,302.036 176.314,304.369 175.5,306.5C 175.336,303.813 175.503,301.146 176,298.5C 178.63,292.144 180.63,285.478 182,278.5C 185.32,269.68 189.487,261.347 194.5,253.5C 197.091,251.546 199.258,249.213 201,246.5C 201.66,249.534 201.16,252.367 199.5,255C 199.833,255.167 200.167,255.333 200.5,255.5C 201.958,252.628 203.125,249.628 204,246.5C 208.099,242.162 211.932,237.495 215.5,232.5C 217.022,231.438 218.688,230.771 220.5,230.5 Z"/></g>
<g><path style="opacity:1" fill="#a4a6a5" d="M 325.5,308.5 C 323.289,315.474 321.622,322.474 320.5,329.5C 320.506,324.785 321.006,320.118 322,315.5C 322.139,312.555 323.306,310.221 325.5,308.5 Z"/></g>
<g><path style="opacity:1" fill="#121c22" d="M 479.5,275.5 C 481.752,275.916 483.252,277.249 484,279.5C 484.996,284.229 484.496,288.729 482.5,293C 438.039,315.061 394.372,338.394 351.5,363C 344.894,363.389 342.061,360.222 343,353.5C 343.7,349.934 345.533,347.1 348.5,345C 392.192,321.726 435.858,298.56 479.5,275.5 Z"/></g>
<g><path style="opacity:1" fill="#616161" d="M 85.5,323.5 C 85.7803,332.056 85.1137,340.39 83.5,348.5C 83.7324,339.983 84.3991,331.65 85.5,323.5 Z"/></g>
<g><path style="opacity:1" fill="#db5511" d="M 200.5,259.5 C 198.83,263.708 197.33,268.042 196,272.5C 190.383,279.846 187.216,288.179 186.5,297.5C 180.68,312.359 177.68,328.026 177.5,344.5C 174.588,363.433 173.921,382.433 175.5,401.5C 177.029,415.821 178.529,430.154 180,444.5C 182.881,456.039 186.048,467.373 189.5,478.5C 191.57,488.282 193.904,497.949 196.5,507.5C 194.19,504.898 192.357,501.898 191,498.5C 184.902,484.456 179.902,470.123 176,455.5C 174.83,447.149 173.663,438.815 172.5,430.5C 169.854,404.584 168.854,378.584 169.5,352.5C 170.578,336.917 172.578,321.583 175.5,306.5C 176.314,304.369 176.814,302.036 177,299.5C 178.533,299.056 180.033,298.723 181.5,298.5C 182.473,295.221 183.973,292.221 186,289.5C 188.144,283.571 189.977,277.571 191.5,271.5C 192.5,271.5 193.5,271.5 194.5,271.5C 194.276,266.39 196.276,262.39 200.5,259.5 Z"/></g>
<g><path style="opacity:1" fill="#111b22" d="M 480.5,315.5 C 482.411,315.574 483.578,316.574 484,318.5C 484.667,322.833 484.667,327.167 484,331.5C 462.325,343.925 440.158,355.759 417.5,367C 394.751,380.04 371.751,392.54 348.5,404.5C 343.439,402.939 341.605,399.606 343,394.5C 344.35,389.815 347.183,386.315 351.5,384C 394.53,361.153 437.53,338.319 480.5,315.5 Z"/></g>
<g><path style="opacity:1" fill="#111a20" d="M 479.5,356.5 C 481.911,356.137 483.411,357.137 484,359.5C 484.667,363.833 484.667,368.167 484,372.5C 483.167,373.333 482.333,374.167 481.5,375C 437.683,397.496 394.349,420.829 351.5,445C 343.333,444.523 340.833,440.356 344,432.5C 345.833,430.667 347.667,428.833 349.5,427C 393.055,403.726 436.388,380.226 479.5,356.5 Z"/></g>
<g><path style="opacity:1" fill="#4c4c4c" d="M 48.5,333.5 C 47.6336,355.487 47.3002,377.487 47.5,399.5C 46.3377,380.671 46.1711,361.671 47,342.5C 47.1805,339.305 47.6805,336.305 48.5,333.5 Z"/></g>
<g><path style="opacity:1" fill="#fefefe" d="M -0.5,369.5 C 0.482501,382.47 2.31583,395.47 5,408.5C 16.6286,467.724 46.462,515.224 94.5,551C 120.636,569.294 149.303,575.294 180.5,569C 187.313,575.244 194.98,580.244 203.5,584C 216.807,587.56 230.14,590.393 243.5,592.5C 162.167,592.5 80.8333,592.5 -0.5,592.5C -0.5,518.167 -0.5,443.833 -0.5,369.5 Z"/></g>
<g><path style="opacity:1" fill="#6b6b6b" d="M 158.5,388.5 C 159.733,397.643 160.399,406.976 160.5,416.5C 158.88,407.384 158.213,398.051 158.5,388.5 Z"/></g>
<g><path style="opacity:1" fill="#c15527" d="M 169.5,352.5 C 168.854,378.584 169.854,404.584 172.5,430.5C 170.077,422.828 168.911,414.828 169,406.5C 168.171,388.329 168.338,370.329 169.5,352.5 Z"/></g>
<g><path style="opacity:1" fill="#fe8921" d="M 189.5,478.5 C 186.048,467.373 182.881,456.039 180,444.5C 178.529,430.154 177.029,415.821 175.5,401.5C 175.5,395.5 175.5,389.5 175.5,383.5C 176.873,383.343 178.207,383.51 179.5,384C 179.848,386.725 179.182,389.392 177.5,392C 178.471,393.204 179.471,393.704 180.5,393.5C 179.511,394.468 178.844,395.635 178.5,397C 179.593,399.734 179.593,402.4 178.5,405C 179.079,409.566 181.079,413.4 184.5,416.5C 184.167,417.167 183.833,417.833 183.5,418.5C 185.548,423.647 187.214,428.98 188.5,434.5C 188.32,435.554 187.987,436.554 187.5,437.5C 188.286,442.781 188.786,448.115 189,453.5C 190.565,455.465 191.732,457.631 192.5,460C 191.66,461.666 192.16,461.833 194,460.5C 194.827,461.662 195.66,462.829 196.5,464C 194.826,464.331 193.826,465.831 193.5,468.5C 194.353,471.561 195.687,474.394 197.5,477C 197.18,478.653 196.18,479.653 194.5,480C 195.308,480.308 195.975,480.808 196.5,481.5C 195.131,483.124 193.464,483.624 191.5,483C 192.612,480.892 191.946,479.392 189.5,478.5 Z"/></g>
<g><path style="opacity:1" fill="#86562e" d="M 540.5,423.5 C 540.672,424.492 540.338,425.158 539.5,425.5C 538.243,424.377 538.576,423.711 540.5,423.5 Z"/></g>
<g><path style="opacity:1" fill="#b7b7b7" d="M 525.5,444.5 C 526.873,444.343 528.207,444.51 529.5,445C 527.157,452.86 524.657,460.693 522,468.5C 514.413,484.015 506.08,499.015 497,513.5C 486.686,526.236 473.852,535.403 458.5,541C 457.5,542 456.5,543 455.5,544C 445.361,546.727 435.361,550.06 425.5,554C 424.167,554.667 422.833,554.667 421.5,554C 425.694,551.589 429.694,548.923 433.5,546C 453.788,523.943 469.955,499.109 482,471.5C 497.151,463.352 511.651,454.352 525.5,444.5 Z"/></g>
<g><path style="opacity:1" fill="#c4c6c4" d="M 320.5,466.5 C 321.167,484.671 321.833,503.004 322.5,521.5C 323.417,520.873 324.417,520.539 325.5,520.5C 324.365,522.213 322.698,522.88 320.5,522.5C 320.5,503.833 320.5,485.167 320.5,466.5 Z"/></g>
<g><path style="opacity:1" fill="#d55310" d="M 402.5,560.5 C 398.298,560.817 394.298,560.483 390.5,559.5C 404.403,550.598 416.403,539.598 426.5,526.5C 428.587,525.415 429.92,523.749 430.5,521.5C 439.909,506.355 449.076,491.022 458,475.5C 462.724,470.889 468.224,468.056 474.5,467C 469.904,476.362 465.404,485.862 461,495.5C 448.679,515.595 433.846,533.761 416.5,550C 411.982,553.752 407.316,557.252 402.5,560.5 Z"/></g>
<g><path style="opacity:1" fill="#111a20" d="M 478.5,397.5 C 481.238,396.965 483.072,397.965 484,400.5C 484.667,404.5 484.667,408.5 484,412.5C 441.073,436.381 397.907,459.881 354.5,483C 348.134,486.232 344.134,484.399 342.5,477.5C 343.462,473.046 345.795,469.546 349.5,467C 392.665,443.969 435.665,420.803 478.5,397.5 Z"/></g>
<g><path style="opacity:1" fill="#fe7a17" d="M 250.5,484.5 C 250.5,485.167 250.5,485.833 250.5,486.5C 249.5,486.5 248.5,486.5 247.5,486.5C 247.5,489.5 247.5,492.5 247.5,495.5C 246.022,495.238 244.689,495.571 243.5,496.5C 242.053,498.403 240.386,500.07 238.5,501.5C 244.068,507.212 245.568,513.545 243,520.5C 242.667,520.167 242.333,519.833 242,519.5C 241.228,520.849 240.061,521.682 238.5,522C 239.167,522.333 239.833,522.667 240.5,523C 237.922,525.157 237.922,526.323 240.5,526.5C 239.137,527.893 238.304,529.559 238,531.5C 237.667,528.833 237.333,526.167 237,523.5C 236.333,524.833 235.667,524.833 235,523.5C 233.12,527.177 230.287,528.177 226.5,526.5C 227.735,523.956 228.901,523.956 230,526.5C 230.448,524.776 231.282,524.109 232.5,524.5C 231.198,522.799 229.531,521.632 227.5,521C 228.765,519.663 229.265,518.163 229,516.5C 226.45,514.161 225.95,514.828 227.5,518.5C 225.278,522.712 224.111,522.379 224,517.5C 223.667,518.167 223.333,518.833 223,519.5C 222.333,518.167 221.667,518.167 221,519.5C 220.5,519 220,518.5 219.5,518C 220.667,517.5 221.5,516.667 222,515.5C 222.333,515.833 222.667,516.167 223,516.5C 224.65,511.932 223.15,509.266 218.5,508.5C 217.282,507.197 217.615,506.197 219.5,505.5C 217.077,502.794 215.91,503.461 216,507.5C 215.222,505.416 214.055,503.583 212.5,502C 213.158,500.095 214.325,498.595 216,497.5C 217.183,498.731 218.349,498.731 219.5,497.5C 217.735,495.947 215.902,495.614 214,496.5C 211.641,493.876 211.975,493.209 215,494.5C 215.692,493.975 216.192,493.308 216.5,492.5C 215.167,492.167 213.833,491.833 212.5,491.5C 215.797,490.858 216.131,489.691 213.5,488C 215.036,486.401 215.536,484.567 215,482.5C 213.47,484.226 212.47,486.226 212,488.5C 211.293,486.919 210.46,485.419 209.5,484C 215.426,481.684 215.76,478.851 210.5,475.5C 211.167,474.5 211.833,473.5 212.5,472.5C 211.384,472.598 210.384,472.098 209.5,471C 209.833,470 210.167,469 210.5,468C 210.056,466.238 209.556,466.405 209,468.5C 208.234,465.42 207.234,462.42 206,459.5C 205.667,460.833 205.333,462.167 205,463.5C 204,458.167 203,458.167 202,463.5C 200.967,459.683 202.134,456.683 205.5,454.5C 204.338,451.529 203.004,448.696 201.5,446C 202.932,443.617 203.765,441.117 204,438.5C 202.981,439.687 201.814,440.687 200.5,441.5C 199.048,439.592 198.381,437.258 198.5,434.5C 197.742,435.811 196.742,436.311 195.5,436C 197.027,434.307 198.36,432.473 199.5,430.5C 199.291,429.914 198.957,429.414 198.5,429C 200.061,428.682 201.228,427.849 202,426.5C 202.195,428.207 202.195,429.874 202,431.5C 206.548,428.298 210.381,428.965 213.5,433.5C 214.806,432.088 215.64,430.421 216,428.5C 216.667,429.167 217.333,429.833 218,430.5C 217.99,428.27 217.157,426.27 215.5,424.5C 216.938,422.655 216.604,421.489 214.5,421C 216.604,419.307 218.104,417.14 219,414.5C 220.38,416.54 220.88,418.54 220.5,420.5C 221.298,418.922 221.798,417.256 222,415.5C 224.398,416.919 226.898,418.253 229.5,419.5C 230.386,418.675 230.719,417.675 230.5,416.5C 229.07,416.579 227.736,416.246 226.5,415.5C 225.669,413.527 225.502,411.527 226,409.5C 225.02,411.059 224.187,412.726 223.5,414.5C 217.978,414.401 216.144,411.734 218,406.5C 219.11,400.338 220.277,400.171 221.5,406C 223.519,406.45 225.352,407.283 227,408.5C 227.667,407.833 228.333,407.167 229,406.5C 230,408.5 231,410.5 232,412.5C 232.202,410.744 232.702,409.078 233.5,407.5C 235.405,409.845 236.571,412.512 237,415.5C 237.192,413.423 237.692,411.423 238.5,409.5C 238.833,409.667 239.167,409.833 239.5,410C 238.22,412.132 238.22,414.298 239.5,416.5C 237.662,417.189 235.995,417.522 234.5,417.5C 235.641,418.425 235.641,419.259 234.5,420C 236.167,420.333 237.833,420.667 239.5,421C 232.927,421.528 232.927,422.362 239.5,423.5C 237.009,424.541 237.009,425.374 239.5,426C 238.736,428.069 238.236,430.236 238,432.5C 237.667,430.833 237.333,429.167 237,427.5C 236.346,426.304 235.846,426.304 235.5,427.5C 236.767,429.371 236.767,431.204 235.5,433C 237.208,435.043 239.208,436.71 241.5,438C 237.665,439.803 237.331,441.136 240.5,442C 241.376,446.5 241.376,451.167 240.5,456C 241.667,456.5 242.5,457.333 243,458.5C 243.333,458.167 243.667,457.833 244,457.5C 245.16,462.111 245.993,466.777 246.5,471.5C 244.473,471.338 242.473,471.505 240.5,472C 243.668,472.582 244.001,473.582 241.5,475C 243.577,475.192 245.577,475.692 247.5,476.5C 246.311,477.429 244.978,477.762 243.5,477.5C 244.129,481.628 246.463,483.962 250.5,484.5 Z"/></g>
<g><path style="opacity:1" fill="#fc8521" d="M 250.5,552.5 C 248.654,555.535 247.487,558.868 247,562.5C 245.599,560.808 243.766,560.141 241.5,560.5C 240.833,560.5 240.5,560.167 240.5,559.5C 239.044,557.716 238.044,555.716 237.5,553.5C 236.07,553.579 234.736,553.246 233.5,552.5C 232.167,550.5 230.833,548.5 229.5,546.5C 223.763,543.098 219.43,538.431 216.5,532.5C 214.302,530.902 211.969,529.569 209.5,528.5C 205.762,525.09 202.762,521.09 200.5,516.5C 201.735,516.721 202.735,517.388 203.5,518.5C 205.311,514.787 204.311,512.454 200.5,511.5C 199.26,505.44 197.26,499.774 194.5,494.5C 196.92,492.047 198.086,489.047 198,485.5C 200.007,490.844 202.007,496.177 204,501.5C 204.308,500.692 204.808,500.025 205.5,499.5C 206.333,500.5 207.167,501.5 208,502.5C 208.333,501.833 208.667,501.167 209,500.5C 209.684,501.784 209.517,502.951 208.5,504C 210.871,506.674 212.037,509.841 212,513.5C 212.333,512.5 212.667,511.5 213,510.5C 213.333,512.167 213.667,513.833 214,515.5C 214.333,514.833 214.667,514.167 215,513.5C 217.633,517.285 220.466,521.618 223.5,526.5C 223.167,527.167 222.833,527.833 222.5,528.5C 225.915,529.914 228.248,532.248 229.5,535.5C 231.761,534.591 233.928,534.258 236,534.5C 236.14,536.256 235.64,537.922 234.5,539.5C 234.977,540.478 235.643,541.311 236.5,542C 235.549,542.718 235.383,543.551 236,544.5C 237.337,543.235 238.837,542.735 240.5,543C 241.376,544.586 242.376,546.086 243.5,547.5C 244.5,548.833 245.5,548.833 246.5,547.5C 247.971,549.043 249.304,550.71 250.5,552.5 Z"/></g>
<g><path style="opacity:1" fill="#b5b5b5" d="M 435.5,489.5 C 436.675,489.281 437.675,489.614 438.5,490.5C 421.19,514.319 402.19,536.819 381.5,558C 374.147,560.705 366.814,563.372 359.5,566C 349.031,568.652 338.531,571.152 328,573.5C 327.312,572.668 327.479,572.002 328.5,571.5C 337.979,565.001 346.813,557.668 355,549.5C 363.201,538.932 371.034,528.099 378.5,517C 397.402,507.213 416.402,498.046 435.5,489.5 Z"/></g>
<g><path style="opacity:1" fill="#c1c3c1" d="M 381.5,492.5 C 374.314,497.261 366.647,501.261 358.5,504.5C 365.686,499.739 373.353,495.739 381.5,492.5 Z"/></g>
<g><path style="opacity:1" fill="#f28b3d" d="M 250.5,200.5 C 251.262,300.501 251.928,400.667 252.5,501C 252.296,521.171 251.962,541.337 251.5,561.5C 250.533,562.806 249.199,563.473 247.5,563.5C 245.181,563.008 243.181,562.008 241.5,560.5C 243.766,560.141 245.599,560.808 247,562.5C 247.487,558.868 248.654,555.535 250.5,552.5C 250.5,530.5 250.5,508.5 250.5,486.5C 250.5,485.833 250.5,485.167 250.5,484.5C 250.5,445.167 250.5,405.833 250.5,366.5C 250.5,330.833 250.5,295.167 250.5,259.5C 250.5,241.5 250.5,223.5 250.5,205.5C 250.5,203.833 250.5,202.167 250.5,200.5 Z"/></g>
<g><path style="opacity:1" fill="#c68e6b" d="M 430.5,521.5 C 429.92,523.749 428.587,525.415 426.5,526.5C 427.08,524.251 428.413,522.585 430.5,521.5 Z"/></g>
<g><path style="opacity:1" fill="#e96c1f" d="M 209.5,528.5 C 211.969,529.569 214.302,530.902 216.5,532.5C 219.43,538.431 223.763,543.098 229.5,546.5C 230.833,548.5 232.167,550.5 233.5,552.5C 234.736,553.246 236.07,553.579 237.5,553.5C 238.044,555.716 239.044,557.716 240.5,559.5C 236.951,558.277 233.951,556.277 231.5,553.5C 230.089,551.086 228.089,549.419 225.5,548.5C 219.763,542.103 214.43,535.436 209.5,528.5 Z"/></g>
<g><path style="opacity:1" fill="#7b3e1e" d="M 225.5,548.5 C 228.089,549.419 230.089,551.086 231.5,553.5C 228.911,552.581 226.911,550.914 225.5,548.5 Z"/></g>
<g><path style="opacity:1" fill="#cd8159" d="M 390.5,559.5 C 394.298,560.483 398.298,560.817 402.5,560.5C 397.684,561.65 392.684,561.816 387.5,561C 388.527,560.487 389.527,559.987 390.5,559.5 Z"/></g>
<g><path style="opacity:1" fill="#d7d7d7" d="M 168.5,560.5 C 169.289,560.783 169.956,561.283 170.5,562C 169.251,562.74 168.251,562.573 167.5,561.5C 168.167,561.5 168.5,561.167 168.5,560.5 Z"/></g>
<g><path style="opacity:1" fill="#c8a086" d="M 251.5,561.5 C 251.5,562.833 251.5,564.167 251.5,565.5C 249.62,565.771 248.287,565.104 247.5,563.5C 249.199,563.473 250.533,562.806 251.5,561.5 Z"/></g>
</svg>
