<?xml version="1.0" standalone="no"?><svg xmlns="http://www.w3.org/2000/svg" viewBox="0 0 1440 320"><path fill="#ffffff" fill-opacity="1" d="M0,192L21.8,197.3C43.6,203,87,213,131,202.7C174.5,192,218,160,262,144C305.5,128,349,128,393,117.3C436.4,107,480,85,524,112C567.3,139,611,213,655,229.3C698.2,245,742,203,785,202.7C829.1,203,873,245,916,245.3C960,245,1004,203,1047,197.3C1090.9,192,1135,224,1178,218.7C1221.8,213,1265,171,1309,144C1352.7,117,1396,107,1418,101.3L1440,96L1440,320L1418.2,320C1396.4,320,1353,320,1309,320C1265.5,320,1222,320,1178,320C1134.5,320,1091,320,1047,320C1003.6,320,960,320,916,320C872.7,320,829,320,785,320C741.8,320,698,320,655,320C610.9,320,567,320,524,320C480,320,436,320,393,320C349.1,320,305,320,262,320C218.2,320,175,320,131,320C87.3,320,44,320,22,320L0,320Z"></path></svg>
